<svg width="260" height="360" viewBox="0 0 260 360" fill="none" xmlns="http://www.w3.org/2000/svg">
<path d="M200.881 248.974C179.193 261.533 156.758 256.213 138.308 243.868C138.204 243.796 138.101 243.731 137.995 243.658C137.889 243.586 137.783 243.514 137.677 243.442C128.534 237.219 120.394 229.279 113.832 220.978C101.142 204.906 90.2463 190.296 73.3078 180.221C71.2278 178.986 69.1309 177.804 67.0076 176.677C66.7043 176.511 66.4009 176.352 66.0976 176.191C50.4928 167.969 33.8528 162.177 17.8315 154.969C11.6998 152.215 5.86907 147.682 3.50259 140.068C-5.33018 111.643 22.3983 77.4293 43.8917 57.4719C44.1035 57.2745 44.3154 57.0795 44.5224 56.8869C44.7511 56.6798 44.9774 56.4704 45.2037 56.2658C48.2587 53.4756 51.1596 50.996 53.7933 48.8774C82.5474 25.7206 115.12 8.91688 146.919 4.65096C180.358 0.168363 211.252 14.5695 232.977 41.2797C247.373 58.9861 255.52 80.506 257.629 104.802C257.66 105.143 257.686 105.485 257.713 105.832C258.991 121.906 257.643 139.174 253.729 157.341C246.311 191.759 229.012 232.685 200.881 248.974Z" fill="#EF8450"/>
<path d="M227.221 69.1887H32.7818C28.4315 69.1887 24.9048 72.7154 24.9048 77.0658V193.288C24.9048 197.639 28.4315 201.165 32.7818 201.165H227.221C231.571 201.165 235.098 197.639 235.098 193.288V77.0658C235.098 72.7154 231.571 69.1887 227.221 69.1887Z" fill="#F9F1E7"/>
<path d="M226.958 203.51H33.0414C27.2612 203.51 22.5596 198.808 22.5596 193.028V77.3258C22.5596 71.5457 27.2612 66.844 33.0414 66.844H226.96C232.741 66.844 237.442 71.5457 237.442 77.3258V193.028C237.442 198.808 232.741 203.51 226.96 203.51H226.958ZM33.0414 71.536C29.8468 71.536 27.2492 74.1336 27.2492 77.3282V193.031C27.2492 196.225 29.8468 198.823 33.0414 198.823H226.96C230.155 198.823 232.753 196.225 232.753 193.031V77.3282C232.753 74.1336 230.155 71.536 226.96 71.536H33.0414Z" fill="#0B2936"/>
<path style="mix-blend-mode:multiply" d="M226.958 203.51H33.0414C27.2612 203.51 22.5596 198.808 22.5596 193.028V77.3258C22.5596 71.5457 27.2612 66.844 33.0414 66.844H226.96C232.741 66.844 237.442 71.5457 237.442 77.3258V193.028C237.442 198.808 232.741 203.51 226.96 203.51H226.958ZM33.0414 71.536C29.8468 71.536 27.2492 74.1336 27.2492 77.3282V193.031C27.2492 196.225 29.8468 198.823 33.0414 198.823H226.96C230.155 198.823 232.753 196.225 232.753 193.031V77.3282C232.753 74.1336 230.155 71.536 226.96 71.536H33.0414Z" fill="url(#paint0_linear_229_2284)"/>
<path d="M160.432 203.51H99.5703V227.685H160.432V203.51Z" fill="#0B2936"/>
<path style="mix-blend-mode:multiply" d="M160.432 203.51H99.5703V227.685H160.432V203.51Z" fill="url(#paint1_linear_229_2284)"/>
<path d="M64.208 227.688H192.667C194.393 227.688 195.794 229.089 195.794 230.815C195.794 232.541 194.393 233.942 192.667 233.942H64.208V227.688Z" fill="#0B2936"/>
<path style="mix-blend-mode:multiply" d="M64.208 227.688H192.667C194.393 227.688 195.794 229.089 195.794 230.815C195.794 232.541 194.393 233.942 192.667 233.942H64.208V227.688Z" fill="url(#paint2_linear_229_2284)"/>
<g style="mix-blend-mode:multiply">
<path d="M64.6606 178.437V71.5432H201.779V178.437C201.779 184.02 197.253 188.546 191.671 188.546H74.7669C69.1841 188.546 64.6582 184.02 64.6582 178.437H64.6606Z" fill="#F9F1E7"/>
</g>
<path d="M188.452 38.8506H71.5506C65.9677 38.8506 61.4419 43.3764 61.4419 48.9593V175.724C61.4419 181.307 65.9677 185.832 71.5506 185.832H188.452C194.035 185.832 198.561 181.307 198.561 175.724V48.9593C198.561 43.3764 194.035 38.8506 188.452 38.8506Z" fill="#F9F1E7" stroke="#0B2936" stroke-width="0.679519" stroke-miterlimit="10"/>
<path d="M61.4419 38.8506H190.645C195.014 38.8506 198.561 42.3967 198.561 46.7661C198.561 51.1356 195.014 54.6817 190.645 54.6817H61.4419V38.8506Z" fill="url(#paint3_linear_229_2284)"/>
<path d="M61.4419 38.8506H190.645C195.014 38.8506 198.561 42.3967 198.561 46.7661C198.561 51.1356 195.014 54.6817 190.645 54.6817H61.4419V38.8506Z" stroke="#0B2936" stroke-width="0.679519" stroke-miterlimit="10"/>
<path d="M175.136 48.6151C176.266 48.6151 177.182 47.6989 177.182 46.5688C177.182 45.4386 176.266 44.5225 175.136 44.5225C174.006 44.5225 173.09 45.4386 173.09 46.5688C173.09 47.6989 174.006 48.6151 175.136 48.6151Z" fill="#F9F1E7"/>
<path d="M181.335 48.6153C182.465 48.6153 183.382 47.6991 183.382 46.569C183.382 45.4389 182.465 44.5227 181.335 44.5227C180.205 44.5227 179.289 45.4389 179.289 46.569C179.289 47.6991 180.205 48.6153 181.335 48.6153Z" fill="#F9F1E7"/>
<path d="M187.535 48.6153C188.665 48.6153 189.581 47.6991 189.581 46.569C189.581 45.4389 188.665 44.5227 187.535 44.5227C186.404 44.5227 185.488 45.4389 185.488 46.569C185.488 47.6991 186.404 48.6153 187.535 48.6153Z" fill="#F9F1E7"/>
<path d="M174.419 131.834H85.5808C84.1196 131.834 82.9351 133.019 82.9351 134.48V144.596C82.9351 146.057 84.1196 147.242 85.5808 147.242H174.419C175.88 147.242 177.065 146.057 177.065 144.596V134.48C177.065 133.019 175.88 131.834 174.419 131.834Z" fill="#F9F1E7" stroke="#0B2936" stroke-width="0.679519" stroke-miterlimit="10"/>
<path d="M174.419 153.747H85.5808C84.1196 153.747 82.9351 154.931 82.9351 156.392V166.508C82.9351 167.969 84.1196 169.154 85.5808 169.154H174.419C175.88 169.154 177.065 167.969 177.065 166.508V156.392C177.065 154.931 175.88 153.747 174.419 153.747Z" fill="#F9F1E7" stroke="#0B2936" stroke-width="0.679519" stroke-miterlimit="10"/>
<path d="M155.025 91.8907C155.025 101.491 149.62 109.831 141.686 114.027C138.2 115.873 134.223 116.918 130 116.918C125.207 116.918 120.729 115.572 116.925 113.235C109.754 108.834 104.973 100.921 104.973 91.8907C104.973 78.0698 116.177 66.8657 130 66.8657C143.823 66.8657 155.025 78.0698 155.025 91.8907Z" fill="#F2D866"/>
<path d="M139.329 83.3757C139.329 78.7535 136.39 75.0076 132.762 75.0076H131.37V83.3757H139.329Z" fill="#EF8450"/>
<path d="M126.363 83.3758H131.37C131.37 78.7535 130.082 72.5208 124.576 72.5208H115.226C115.226 72.5208 115.628 73.9363 116.16 75.7443C117.494 80.2678 121.647 83.3758 126.363 83.3758Z" fill="#EF8450"/>
<g style="mix-blend-mode:multiply">
<path d="M139.329 83.3757C139.329 78.7535 136.39 75.0076 132.762 75.0076H131.37V83.3757H139.329Z" fill="url(#paint4_linear_229_2284)"/>
<path d="M126.363 83.3758H131.37C131.37 78.7535 130.082 72.5208 124.576 72.5208H115.226C115.226 72.5208 115.628 73.9363 116.16 75.7443C117.494 80.2678 121.647 83.3758 126.363 83.3758Z" fill="url(#paint5_linear_229_2284)"/>
</g>
<path d="M138.679 83.376V87.9236L144.195 83.376H138.679Z" fill="#EF8450"/>
<path d="M138.602 95.0373C138.602 96.2362 139.575 97.2088 140.774 97.2088C141.972 97.2088 142.945 96.2362 142.945 95.0373C142.945 94.616 142.822 94.226 142.618 93.8938H142.62L138.602 87.1531V95.0397V95.0373Z" fill="#EF8450"/>
<path style="mix-blend-mode:multiply" d="M138.679 83.376V87.9236L144.195 83.376H138.679Z" fill="url(#paint6_linear_229_2284)"/>
<path style="mix-blend-mode:multiply" d="M138.602 95.0373C138.602 96.2362 139.575 97.2088 140.774 97.2088C141.972 97.2088 142.945 96.2362 142.945 95.0373C142.945 94.616 142.822 94.226 142.618 93.8938H142.62L138.602 87.1531V95.0397V95.0373Z" fill="url(#paint7_linear_229_2284)"/>
<path d="M141.686 114.027C138.2 115.874 134.223 116.918 130 116.918C125.207 116.918 120.729 115.573 116.926 113.235L118.103 92.671C118.397 87.5625 122.535 83.5518 127.612 83.3808C127.723 83.3784 127.834 83.3784 127.944 83.3784H139.327C139.327 83.3784 139.096 85.0106 138.929 87.6997V87.719C138.797 89.8856 138.706 92.736 138.812 95.9716C138.833 96.6312 138.862 97.3077 138.901 97.9986C139.18 102.953 139.948 108.608 141.686 114.027Z" fill="#0B2936"/>
<path style="mix-blend-mode:multiply" d="M141.686 114.027C138.2 115.874 134.223 116.918 130 116.918C125.207 116.918 120.729 115.573 116.926 113.235L118.103 92.671C118.397 87.5625 122.535 83.5518 127.612 83.3808C127.723 83.3784 127.834 83.3784 127.944 83.3784H139.327C139.327 83.3784 139.096 85.0106 138.929 87.6997V87.719C138.797 89.8856 138.706 92.736 138.812 95.9716C138.833 96.6312 138.862 97.3077 138.901 97.9986C139.18 102.953 139.948 108.608 141.686 114.027Z" fill="url(#paint8_linear_229_2284)"/>
<path d="M138.901 97.9986H133.041C130.044 97.9986 127.612 95.5671 127.612 92.5699V83.3808L127.617 83.376H139.327C139.327 83.376 138.431 89.7075 138.898 97.9962L138.901 97.9986Z" fill="#F9F1E7"/>
<path d="M131.346 87.702C132.27 87.702 133.019 86.9529 133.019 86.0289C133.019 85.1048 132.27 84.3557 131.346 84.3557C130.422 84.3557 129.673 85.1048 129.673 86.0289C129.673 86.9529 130.422 87.702 131.346 87.702Z" fill="#0B2936"/>
<path d="M130 116.918C143.821 116.918 155.025 105.714 155.025 91.8932C155.025 78.0722 143.821 66.8682 130 66.8682C116.179 66.8682 104.975 78.0722 104.975 91.8932C104.975 105.714 116.179 116.918 130 116.918Z" stroke="#0B2936" stroke-width="0.679519" stroke-miterlimit="10"/>
<path d="M147.574 137.492H112.426C111.296 137.492 110.38 138.408 110.38 139.538C110.38 140.668 111.296 141.585 112.426 141.585H147.574C148.704 141.585 149.621 140.668 149.621 139.538C149.621 138.408 148.704 137.492 147.574 137.492Z" fill="#0B2936"/>
<path d="M111.357 163.617C112.554 163.617 113.524 162.647 113.524 161.45C113.524 160.254 112.554 159.284 111.357 159.284C110.16 159.284 109.19 160.254 109.19 161.45C109.19 162.647 110.16 163.617 111.357 163.617Z" fill="#0B2936"/>
<path d="M118.892 163.617C120.089 163.617 121.059 162.647 121.059 161.45C121.059 160.254 120.089 159.284 118.892 159.284C117.696 159.284 116.726 160.254 116.726 161.45C116.726 162.647 117.696 163.617 118.892 163.617Z" fill="#0B2936"/>
<path d="M126.427 163.617C127.624 163.617 128.594 162.647 128.594 161.45C128.594 160.254 127.624 159.284 126.427 159.284C125.231 159.284 124.261 160.254 124.261 161.45C124.261 162.647 125.231 163.617 126.427 163.617Z" fill="#0B2936"/>
<path d="M133.963 163.617C135.159 163.617 136.129 162.647 136.129 161.45C136.129 160.254 135.159 159.284 133.963 159.284C132.766 159.284 131.796 160.254 131.796 161.45C131.796 162.647 132.766 163.617 133.963 163.617Z" fill="#0B2936"/>
<path d="M141.498 163.617C142.694 163.617 143.664 162.647 143.664 161.45C143.664 160.254 142.694 159.284 141.498 159.284C140.301 159.284 139.331 160.254 139.331 161.45C139.331 162.647 140.301 163.617 141.498 163.617Z" fill="#0B2936"/>
<path d="M149.033 163.617C150.229 163.617 151.2 162.647 151.2 161.45C151.2 160.254 150.229 159.284 149.033 159.284C147.836 159.284 146.866 160.254 146.866 161.45C146.866 162.647 147.836 163.617 149.033 163.617Z" fill="#0B2936"/>
<path d="M50.3918 123.014C48.514 120.202 49.27 116.4 52.0818 114.523" stroke="#0B2936" stroke-width="0.679519" stroke-linecap="round" stroke-linejoin="round"/>
<path d="M50.3918 123.014C48.514 120.202 44.7127 119.446 41.9009 121.324" stroke="#0B2936" stroke-width="0.679519" stroke-linecap="round" stroke-linejoin="round"/>
<path d="M43.5762 112.813C45.4539 115.625 49.2552 116.381 52.0671 114.503" stroke="#0B2936" stroke-width="0.679519" stroke-linecap="round" stroke-linejoin="round"/>
<path d="M43.5762 112.813C45.454 115.625 44.6981 119.427 41.8862 121.304" stroke="#0B2936" stroke-width="0.679519" stroke-linecap="round" stroke-linejoin="round"/>
<path d="M37.9911 96.3948L37.4663 98.9514" stroke="#0B2936" stroke-width="0.679519" stroke-linecap="round" stroke-linejoin="round"/>
<path d="M37.0883 100.791L36.5659 103.347" stroke="#0B2936" stroke-width="0.679519" stroke-linecap="round" stroke-linejoin="round"/>
<path d="M40.7549 100.584L38.1982 100.059" stroke="#0B2936" stroke-width="0.679519" stroke-linecap="round" stroke-linejoin="round"/>
<path d="M36.3589 99.6833L33.8022 99.1584" stroke="#0B2936" stroke-width="0.679519" stroke-linecap="round" stroke-linejoin="round"/>
<path d="M211.656 163.619C212.677 160.6 215.951 158.978 218.972 159.998" stroke="#0B2936" stroke-width="0.679519" stroke-linecap="round" stroke-linejoin="round"/>
<path d="M211.656 163.619C212.677 160.6 211.057 157.324 208.036 156.303" stroke="#0B2936" stroke-width="0.679519" stroke-linecap="round" stroke-linejoin="round"/>
<path d="M215.362 152.661C214.341 155.68 215.961 158.956 218.982 159.977" stroke="#0B2936" stroke-width="0.679519" stroke-linecap="round" stroke-linejoin="round"/>
<path d="M215.362 152.661C214.341 155.68 211.067 157.302 208.045 156.281" stroke="#0B2936" stroke-width="0.679519" stroke-linecap="round" stroke-linejoin="round"/>
<path d="M185.284 165.687L186.394 168.307" stroke="#0B2936" stroke-width="0.679519" stroke-linecap="round" stroke-linejoin="round"/>
<path d="M187.19 170.189L188.3 172.808" stroke="#0B2936" stroke-width="0.679519" stroke-linecap="round" stroke-linejoin="round"/>
<path d="M190.351 167.738L187.732 168.848" stroke="#0B2936" stroke-width="0.679519" stroke-linecap="round" stroke-linejoin="round"/>
<path d="M185.849 169.645L183.23 170.755" stroke="#0B2936" stroke-width="0.679519" stroke-linecap="round" stroke-linejoin="round"/>
<path d="M223.773 112.476L222.803 114.746" stroke="#0B2936" stroke-width="0.679519" stroke-linecap="round" stroke-linejoin="round"/>
<path d="M222.105 116.376L221.132 118.646" stroke="#0B2936" stroke-width="0.679519" stroke-linecap="round" stroke-linejoin="round"/>
<path d="M225.538 116.882L223.268 115.911" stroke="#0B2936" stroke-width="0.679519" stroke-linecap="round" stroke-linejoin="round"/>
<path d="M221.638 115.211L219.368 114.241" stroke="#0B2936" stroke-width="0.679519" stroke-linecap="round" stroke-linejoin="round"/>
<path d="M199.538 42.0549L215.094 34.7893" stroke="#0B2936" stroke-width="0.679519" stroke-linecap="round" stroke-linejoin="round"/>
<path d="M196.223 38.7063L202.374 28.3689" stroke="#0B2936" stroke-width="0.679519" stroke-linecap="round" stroke-linejoin="round"/>
<path d="M192.051 37.6518L190.351 30.9568" stroke="#0B2936" stroke-width="0.679519" stroke-linecap="round" stroke-linejoin="round"/>
<path d="M200.792 46.5376L208.614 48.437" stroke="#0B2936" stroke-width="0.679519" stroke-linecap="round" stroke-linejoin="round"/>
<path d="M43.4466 243.509L49.2075 208.491L20.5786 229.464L32.9431 231.436L24.5629 245.076L27.7166 247.014L36.0968 233.374L43.4466 243.509Z" stroke="#0B2936" stroke-width="0.679519" stroke-linecap="round" stroke-linejoin="round"/>
<path d="M78.5703 335.594H68.2695V299.383C67.0742 299.992 65.6914 300.602 64.1211 301.211L60.4297 291.648C61.8359 291.086 63.1953 290.477 64.5078 289.82C65.8203 289.164 67.0391 288.613 68.1641 288.168C69.3125 287.699 70.4727 287.465 71.6445 287.465C73.8477 287.465 75.5469 288.074 76.7422 289.293C77.9609 290.488 78.5703 292.574 78.5703 295.551V335.594Z" fill="#757A2E"/>
<path d="M102.703 319.434L100.477 315.93H100.418L100.324 319.422L96.9258 319.129L97.3359 302.102L100.758 301.855L100.746 301.961C102.543 302.016 104.023 302.332 105.188 302.91C106.359 303.48 107.242 304.215 107.836 305.113C108.516 306.152 108.855 307.258 108.855 308.43C108.855 308.586 108.848 308.742 108.832 308.898C108.73 310.188 108.289 311.391 107.508 312.508C106.68 313.695 105.547 314.609 104.109 315.25L105.598 317.605L102.703 319.434ZM100.676 312.508C101.559 312.508 102.344 312.332 103.031 311.98C103.727 311.621 104.285 311.141 104.707 310.539C105.191 309.852 105.434 309.148 105.434 308.43C105.434 307.273 104.781 306.418 103.477 305.863C102.766 305.566 101.828 305.402 100.664 305.371L100.5 312.508H100.676ZM114.844 319.07C113.047 319.07 111.625 318.352 110.578 316.914C110.195 316.375 109.906 315.719 109.711 314.945C109.289 314.938 109.059 314.93 109.02 314.922L109.16 311.512L109.594 311.535C109.789 310.23 110.18 309.176 110.766 308.371C111.359 307.566 112.051 306.98 112.84 306.613C113.543 306.293 114.266 306.133 115.008 306.133C115.672 306.133 116.293 306.254 116.871 306.496C117.629 306.816 118.23 307.297 118.676 307.938C119.129 308.578 119.355 309.344 119.355 310.234V310.328C119.301 311.273 118.965 312.047 118.348 312.648C117.738 313.242 116.973 313.703 116.051 314.031C115.129 314.352 114.188 314.574 113.227 314.699C113.273 314.801 113.328 314.891 113.391 314.969C113.609 315.273 113.879 315.473 114.199 315.566C114.395 315.621 114.598 315.648 114.809 315.648C114.98 315.648 115.156 315.629 115.336 315.59C115.773 315.496 116.078 315.348 116.25 315.145L118.934 317.254C118.246 318.09 117.285 318.648 116.051 318.93C115.652 319.023 115.25 319.07 114.844 319.07ZM113.074 311.43C114.918 311.266 115.875 310.867 115.945 310.234C115.93 309.945 115.793 309.746 115.535 309.637C115.379 309.574 115.211 309.543 115.031 309.543C114.781 309.543 114.543 309.598 114.316 309.707C113.762 309.941 113.348 310.516 113.074 311.43ZM126.328 325.012C125.719 325.012 125.109 324.855 124.5 324.543C123.898 324.23 123.336 323.723 122.812 323.02C122.297 322.324 121.848 321.41 121.465 320.277L124.699 319.188C125.168 320.531 125.637 321.312 126.105 321.531C126.168 321.562 126.234 321.578 126.305 321.578C126.359 321.578 126.418 321.566 126.48 321.543C126.77 321.441 127.07 321.211 127.383 320.852C128.141 319.969 128.691 318.758 129.035 317.219C128.168 317.609 127.402 317.805 126.738 317.805C125.582 317.805 124.426 317.402 123.27 316.598C122.676 316.176 122.156 315.676 121.711 315.098V315.086C121.242 314.469 120.906 313.785 120.703 313.035C120.602 312.629 120.551 312.219 120.551 311.805C120.551 311.516 120.594 311.121 120.68 310.621C120.766 310.121 121.062 309.512 121.57 308.793C122.242 307.879 123.035 307.305 123.949 307.07C124.41 306.953 124.887 306.895 125.379 306.895C125.848 306.895 126.328 306.949 126.82 307.059C127.625 307.238 128.398 307.5 129.141 307.844C129.117 307.328 129.09 306.828 129.059 306.344L132.469 306.109C132.609 308.195 132.68 310.789 132.68 313.891V314.793C132.68 316.543 132.422 318.145 131.906 319.598C131.398 321.012 130.746 322.176 129.949 323.09C129.238 323.91 128.449 324.477 127.582 324.789C127.16 324.938 126.742 325.012 126.328 325.012ZM126.762 314.324C126.949 314.324 127.262 314.27 127.699 314.16C128.137 314.051 128.66 313.734 129.27 313.211L129.258 311.77C128.883 311.535 128.367 311.266 127.711 310.961C127.062 310.648 126.418 310.441 125.777 310.34C125.645 310.316 125.52 310.305 125.402 310.305C124.957 310.305 124.605 310.461 124.348 310.773C124.098 311.148 123.973 311.504 123.973 311.84C123.973 311.965 123.988 312.086 124.02 312.203C124.098 312.492 124.238 312.77 124.441 313.035C124.676 313.34 124.945 313.598 125.25 313.809C125.758 314.152 126.262 314.324 126.762 314.324ZM135.738 305.512C135.277 305.512 134.883 305.352 134.555 305.031C134.234 304.703 134.074 304.309 134.074 303.848C134.074 303.395 134.234 303.008 134.555 302.688C134.883 302.359 135.277 302.195 135.738 302.195C136.191 302.195 136.578 302.359 136.898 302.688C137.227 303.008 137.391 303.395 137.391 303.848C137.391 304.309 137.227 304.703 136.898 305.031C136.578 305.352 136.191 305.512 135.738 305.512ZM137.027 318.438L133.629 318.426L133.922 306.496L137.332 306.238L137.027 318.438ZM143.18 318.684H142.957C141.707 318.684 140.73 318.195 140.027 317.219L142.84 315.262H142.887C142.926 315.254 142.984 315.25 143.062 315.25C143.469 315.227 143.883 315.105 144.305 314.887C144.336 314.863 144.352 314.84 144.352 314.816C144.352 314.777 144.305 314.73 144.211 314.676C144.125 314.613 143.98 314.543 143.777 314.465C143.582 314.379 143.398 314.309 143.227 314.254C143.117 314.207 143.035 314.176 142.98 314.16C142.176 313.832 141.438 313.48 140.766 313.105C140.094 312.73 139.613 312.277 139.324 311.746C139.191 311.496 139.125 311.215 139.125 310.902C139.125 310.551 139.211 310.16 139.383 309.73C139.625 309.184 139.973 308.723 140.426 308.348C141.246 307.684 142.227 307.281 143.367 307.141C143.648 307.102 143.926 307.082 144.199 307.082C145.02 307.082 145.82 307.242 146.602 307.562C147.266 307.852 147.836 308.273 148.312 308.828L145.688 311.043C145.57 310.91 145.422 310.805 145.242 310.727C144.93 310.594 144.594 310.527 144.234 310.527C144.086 310.527 143.938 310.539 143.789 310.562C143.289 310.625 142.898 310.766 142.617 310.984L142.605 311.008C142.605 311.047 142.789 311.082 143.156 311.113C143.531 311.145 144.016 311.219 144.609 311.336C145.211 311.453 145.812 311.664 146.414 311.969C147.023 312.273 147.535 312.723 147.949 313.316C148.293 313.824 148.465 314.332 148.465 314.84C148.465 315.027 148.41 315.348 148.301 315.801C148.191 316.246 147.613 316.824 146.566 317.535C145.566 318.207 144.438 318.59 143.18 318.684ZM145.148 315.297C145.148 315.273 145.121 315.234 145.066 315.18L145.148 315.297ZM156.105 318.848C155.387 318.848 154.672 318.625 153.961 318.18C153.25 317.734 152.652 316.969 152.168 315.883C151.684 314.789 151.418 313.312 151.371 311.453L151.359 310.07L151.371 308.699H149.285V305.266H151.488C151.543 304.086 151.617 302.941 151.711 301.832L155.121 302.125C155.027 303.211 154.957 304.258 154.91 305.266H159.727V308.699H154.781L154.77 310.047C154.77 310.5 154.773 310.949 154.781 311.395C154.836 313.621 155.191 314.938 155.848 315.344C155.934 315.398 156.023 315.426 156.117 315.426C156.164 315.426 156.211 315.418 156.258 315.402C156.531 315.332 156.789 315.168 157.031 314.91C157.273 314.652 157.445 314.363 157.547 314.043C157.594 313.902 157.617 313.762 157.617 313.621C157.617 313.449 157.582 313.277 157.512 313.105L160.652 311.781C160.902 312.406 161.027 313.023 161.027 313.633C161.027 314.008 160.941 314.531 160.77 315.203C160.598 315.867 160.18 316.551 159.516 317.254C158.82 317.988 158.004 318.477 157.066 318.719C156.746 318.805 156.426 318.848 156.105 318.848ZM165.68 319.305L162.27 319.105C162.387 317.402 162.445 315.914 162.445 314.641C162.445 314.117 162.43 313.648 162.398 313.234C162.383 313.07 162.375 312.906 162.375 312.742C162.375 311.891 162.559 311.039 162.926 310.188C163.348 309.219 164.027 308.434 164.965 307.832C165.66 307.395 166.48 307.176 167.426 307.176C167.77 307.176 168.129 307.203 168.504 307.258C169.715 307.453 171.094 308.133 172.641 309.297L170.555 312.004C169.477 311.191 168.586 310.73 167.883 310.621C167.719 310.59 167.57 310.574 167.438 310.574C166.812 310.574 166.348 310.91 166.043 311.582C165.879 311.965 165.797 312.344 165.797 312.719L165.809 312.941C165.84 313.387 165.855 313.918 165.855 314.535C165.855 315.91 165.797 317.5 165.68 319.305ZM182.789 319.41L180.562 318.273C179.75 318.625 179 318.801 178.312 318.801C177.453 318.801 176.586 318.566 175.711 318.098C175.016 317.73 174.43 317.246 173.953 316.645C173.414 315.965 173.145 315.195 173.145 314.336C173.145 313.508 173.465 312.719 174.105 311.969C174.684 311.344 175.348 310.945 176.098 310.773C176.488 310.688 176.891 310.645 177.305 310.645C177.789 310.645 178.34 310.715 178.957 310.855L178.934 310.797C178.629 310.359 178.113 310.141 177.387 310.141C177.215 310.141 177.035 310.156 176.848 310.188C176.285 310.273 175.781 310.461 175.336 310.75L173.473 307.891C174.309 307.344 175.258 306.984 176.32 306.812C176.68 306.75 177.035 306.719 177.387 306.719C179.309 306.719 180.777 307.453 181.793 308.922C182.184 309.516 182.449 310.238 182.59 311.09C182.809 312.434 182.984 313.863 183.117 315.379C183.164 315.918 183.188 316.434 183.188 316.926C183.188 317.191 183.172 317.566 183.141 318.051C183.109 318.535 182.992 318.988 182.789 319.41ZM178.312 315.402L178.43 315.391C178.875 315.289 179.281 315.145 179.648 314.957L179.625 314.676C179.055 314.426 178.469 314.242 177.867 314.125C177.641 314.078 177.441 314.055 177.27 314.055C176.996 314.055 176.793 314.113 176.66 314.23C176.59 314.316 176.555 314.371 176.555 314.395C176.555 314.418 176.586 314.469 176.648 314.547C176.812 314.75 177.039 314.93 177.328 315.086C177.719 315.297 178.047 315.402 178.312 315.402ZM189.973 318.848C189.254 318.848 188.539 318.625 187.828 318.18C187.117 317.734 186.52 316.969 186.035 315.883C185.551 314.789 185.285 313.312 185.238 311.453L185.227 310.07L185.238 308.699H183.152V305.266H185.355C185.41 304.086 185.484 302.941 185.578 301.832L188.988 302.125C188.895 303.211 188.824 304.258 188.777 305.266H193.594V308.699H188.648L188.637 310.047C188.637 310.5 188.641 310.949 188.648 311.395C188.703 313.621 189.059 314.938 189.715 315.344C189.801 315.398 189.891 315.426 189.984 315.426C190.031 315.426 190.078 315.418 190.125 315.402C190.398 315.332 190.656 315.168 190.898 314.91C191.141 314.652 191.312 314.363 191.414 314.043C191.461 313.902 191.484 313.762 191.484 313.621C191.484 313.449 191.449 313.277 191.379 313.105L194.52 311.781C194.77 312.406 194.895 313.023 194.895 313.633C194.895 314.008 194.809 314.531 194.637 315.203C194.465 315.867 194.047 316.551 193.383 317.254C192.688 317.988 191.871 318.477 190.934 318.719C190.613 318.805 190.293 318.848 189.973 318.848ZM198.41 305.512C197.949 305.512 197.555 305.352 197.227 305.031C196.906 304.703 196.746 304.309 196.746 303.848C196.746 303.395 196.906 303.008 197.227 302.688C197.555 302.359 197.949 302.195 198.41 302.195C198.863 302.195 199.25 302.359 199.57 302.688C199.898 303.008 200.062 303.395 200.062 303.848C200.062 304.309 199.898 304.703 199.57 305.031C199.25 305.352 198.863 305.512 198.41 305.512ZM199.699 318.438L196.301 318.426L196.594 306.496L200.004 306.238L199.699 318.438Z" fill="#757A2E"/>
<defs>
<linearGradient id="paint0_linear_229_2284" x1="164.522" y1="157.74" x2="235.885" y2="204.379" gradientUnits="userSpaceOnUse">
<stop stop-color="#0B2936" stop-opacity="0"/>
<stop offset="1" stop-color="#0B2936"/>
</linearGradient>
<linearGradient id="paint1_linear_229_2284" x1="130" y1="227.187" x2="130" y2="203.698" gradientUnits="userSpaceOnUse">
<stop stop-color="#0B2936" stop-opacity="0"/>
<stop offset="1" stop-color="#0B2936"/>
</linearGradient>
<linearGradient id="paint2_linear_229_2284" x1="130" y1="227.069" x2="130" y2="235.033" gradientUnits="userSpaceOnUse">
<stop stop-color="#0B2936" stop-opacity="0"/>
<stop offset="1" stop-color="#0B2936"/>
</linearGradient>
<linearGradient id="paint3_linear_229_2284" x1="197.328" y1="53.1747" x2="65.8426" y2="41.4963" gradientUnits="userSpaceOnUse">
<stop stop-color="#7B8030"/>
<stop offset="0.43" stop-color="#7C8130"/>
<stop offset="0.59" stop-color="#838633"/>
<stop offset="0.7" stop-color="#8F8F39"/>
<stop offset="0.79" stop-color="#A09B41"/>
<stop offset="0.87" stop-color="#B6AC4B"/>
<stop offset="0.94" stop-color="#D1BF57"/>
<stop offset="1" stop-color="#F2D866"/>
</linearGradient>
<linearGradient id="paint4_linear_229_2284" x1="135.35" y1="83.3757" x2="135.35" y2="75.0076" gradientUnits="userSpaceOnUse">
<stop stop-color="#EF8450"/>
<stop offset="1" stop-color="#F0854F" stop-opacity="0"/>
</linearGradient>
<linearGradient id="paint5_linear_229_2284" x1="123.298" y1="83.3758" x2="123.298" y2="72.5208" gradientUnits="userSpaceOnUse">
<stop stop-color="#EF8450"/>
<stop offset="1" stop-color="#F0854F" stop-opacity="0"/>
</linearGradient>
<linearGradient id="paint6_linear_229_2284" x1="141.438" y1="87.9236" x2="141.438" y2="83.376" gradientUnits="userSpaceOnUse">
<stop stop-color="#EF8450"/>
<stop offset="1" stop-color="#F0854F" stop-opacity="0"/>
</linearGradient>
<linearGradient id="paint7_linear_229_2284" x1="140.774" y1="97.2064" x2="140.774" y2="87.1507" gradientUnits="userSpaceOnUse">
<stop stop-color="#EF8450"/>
<stop offset="1" stop-color="#F0854F" stop-opacity="0"/>
</linearGradient>
<linearGradient id="paint8_linear_229_2284" x1="129.307" y1="110.546" x2="129.307" y2="117.116" gradientUnits="userSpaceOnUse">
<stop stop-color="#0B2936" stop-opacity="0"/>
<stop offset="1" stop-color="#0B2936"/>
</linearGradient>
</defs>
</svg>
