<svg width="260" height="360" viewBox="0 0 260 360" fill="none" xmlns="http://www.w3.org/2000/svg">
<path d="M257.058 95.0469C256.856 88.4963 256.061 81.9867 254.675 75.6432C254.593 75.2748 254.511 74.9065 254.424 74.5382C251.942 63.7434 247.741 53.4589 241.839 44.318C231.995 29.0791 218.388 18.058 203.13 15.2148C188.291 11.1632 178.401 19.9598 168.711 30.6247C168.547 30.8076 168.379 30.9882 168.215 31.176C167.912 31.5082 167.613 31.8404 167.315 32.1726C163.959 35.9306 160.345 39.2721 156.534 42.1802C154.89 43.4393 153.207 44.6141 151.488 45.6998C140.535 52.6548 128.228 56.1889 115.681 55.7122C104.855 55.2982 93.7565 53.2061 82.7281 51.533C82.4657 51.4921 82.2081 51.456 81.9481 51.415C79.3144 51.0202 76.6783 50.6519 74.0591 50.3413C64.7617 49.2315 55.5798 48.8223 46.7229 50.3871C45.642 50.6134 44.5828 50.8613 43.5476 51.1237C28.9539 54.7854 18.5659 61.6393 11.9431 70.8091C11.7529 71.0739 11.5628 71.3363 11.3822 71.606C4.90869 81.0045 2.27258 92.7334 3.01406 105.885C3.44017 113.367 4.96165 121.309 7.49424 129.547C9.76684 136.926 12.8483 144.536 16.6833 152.254C16.8109 152.509 16.9337 152.76 17.0637 153.015C18.4865 155.858 20.02 158.713 21.645 161.585C22.4707 163.032 23.3952 164.387 24.2161 165.839C29.9722 175.969 35.9089 186.131 42.3415 195.587H42.3463C47.0696 202.547 52.0674 209.129 57.46 215.047C62.8646 220.983 68.6665 226.251 74.9931 230.557C82.6463 235.769 91.3346 239.564 99.9002 242.106C100.244 242.209 100.591 242.31 100.935 242.411C104.766 243.507 108.56 244.359 112.214 244.978C125.638 247.243 139.312 244.795 151.696 238.1C153.571 237.086 155.456 236.039 157.343 234.961C157.883 234.65 158.424 234.342 158.961 234.024C166.836 229.452 174.783 224.303 182.583 218.6C182.806 218.441 183.028 218.282 183.247 218.118C209.945 198.469 234.778 172.322 248.548 140.477C249.855 137.451 251.018 134.365 252.024 131.225C255.765 119.571 257.439 107.245 257.063 95.0541L257.058 95.0469Z" fill="#EF8450"/>
<path d="M223.376 129.995C223.376 165.817 203.211 196.933 173.605 212.589C160.598 219.479 145.759 223.376 130.004 223.376C112.12 223.376 95.4124 218.354 81.2208 209.632C54.4624 193.211 36.6235 163.687 36.6235 129.993C36.6235 78.4238 78.4282 36.6191 130.004 36.6191C181.581 36.6191 223.378 78.4238 223.378 129.993L223.376 129.995Z" fill="#F2D866"/>
<path d="M164.803 98.2246C164.803 80.9828 153.833 67.0054 140.298 67.0054H135.108V98.2246H164.803Z" fill="#EF8450"/>
<path d="M116.429 98.2271H135.108C135.108 80.9852 130.298 57.7249 109.76 57.7249H74.8745C74.8745 57.7249 76.3743 63.0043 78.3628 69.7523C83.3341 86.633 98.8306 98.2271 116.429 98.2271Z" fill="#EF8450"/>
<g style="mix-blend-mode:multiply">
<path d="M164.803 98.2246C164.803 80.9828 153.833 67.0054 140.298 67.0054H135.108V98.2246H164.803Z" fill="url(#paint0_linear_229_2290)"/>
<path d="M116.429 98.2271H135.108C135.108 80.9852 130.298 57.7249 109.76 57.7249H74.8745C74.8745 57.7249 76.3743 63.0043 78.3628 69.7523C83.3341 86.633 98.8306 98.2271 116.429 98.2271Z" fill="url(#paint1_linear_229_2290)"/>
</g>
<path d="M162.386 98.2268V115.194L182.962 98.2268H162.386Z" fill="#EF8450"/>
<path d="M162.09 141.731C162.09 146.204 165.718 149.832 170.193 149.832C174.669 149.832 178.297 146.204 178.297 141.729C178.297 140.159 177.844 138.7 177.071 137.46H177.074H177.086L162.09 112.308V141.734V141.731Z" fill="#EF8450"/>
<path style="mix-blend-mode:multiply" d="M162.386 98.2268V115.194L182.962 98.2268H162.386Z" fill="url(#paint2_linear_229_2290)"/>
<path style="mix-blend-mode:multiply" d="M162.09 141.731C162.09 146.204 165.718 149.832 170.193 149.832C174.669 149.832 178.297 146.204 178.297 141.729C178.297 140.159 177.844 138.7 177.071 137.46H177.074H177.086L162.09 112.308V141.734V141.731Z" fill="url(#paint3_linear_229_2290)"/>
<path d="M173.604 212.588C160.597 219.478 145.758 223.376 130.004 223.376C112.119 223.376 95.4119 218.354 81.2202 209.632L85.6137 132.903C86.7091 113.844 102.15 98.8768 121.094 98.2389C121.508 98.2293 121.92 98.2292 122.334 98.2292H164.803C164.803 98.2292 163.941 104.32 163.32 114.354V114.426C162.826 122.51 162.485 133.146 162.879 145.217C162.961 147.677 163.067 150.203 163.212 152.781C164.254 171.268 167.119 192.366 173.604 212.586V212.588Z" fill="#0B2936"/>
<path style="mix-blend-mode:multiply" d="M173.604 212.588C160.597 219.478 145.758 223.376 130.004 223.376C112.119 223.376 95.4119 218.354 81.2202 209.632L85.6137 132.903C86.7091 113.844 102.15 98.8768 121.094 98.2389C121.508 98.2293 121.92 98.2292 122.334 98.2292H164.803C164.803 98.2292 163.941 104.32 163.32 114.354V114.426C162.826 122.51 162.485 133.146 162.879 145.217C162.961 147.677 163.067 150.203 163.212 152.781C164.254 171.268 167.119 192.366 173.604 212.586V212.588Z" fill="url(#paint4_linear_229_2290)"/>
<path d="M163.207 152.784H141.345C130.158 152.784 121.089 143.715 121.089 132.528V98.2461L121.106 98.2292H164.801C164.801 98.2292 161.459 121.858 163.207 152.784Z" fill="#F9F1E7"/>
<path d="M135.018 114.366C138.466 114.366 141.261 111.571 141.261 108.124C141.261 104.676 138.466 101.881 135.018 101.881C131.571 101.881 128.776 104.676 128.776 108.124C128.776 111.571 131.571 114.366 135.018 114.366Z" fill="#0B2936"/>
<path d="M130 223.376C181.57 223.376 223.376 181.57 223.376 130C223.376 78.4299 181.57 36.624 130 36.624C78.4294 36.624 36.6235 78.4299 36.6235 130C36.6235 181.57 78.4294 223.376 130 223.376Z" stroke="#0B2936" stroke-width="0.679519" stroke-miterlimit="10"/>
<path d="M23.6096 141.122C22.7333 138.058 24.5076 134.863 27.5722 133.987" stroke="#0B2936" stroke-width="0.679519" stroke-linecap="round" stroke-linejoin="round"/>
<path d="M23.6097 141.122C22.7334 138.057 19.5388 136.283 16.4741 137.159" stroke="#0B2936" stroke-width="0.679519" stroke-linecap="round" stroke-linejoin="round"/>
<path d="M20.4292 130C21.3055 133.065 24.5001 134.839 27.5648 133.963" stroke="#0B2936" stroke-width="0.679519" stroke-linecap="round" stroke-linejoin="round"/>
<path d="M20.4294 130C21.3057 133.065 19.5314 136.259 16.4668 137.136" stroke="#0B2936" stroke-width="0.679519" stroke-linecap="round" stroke-linejoin="round"/>
<path d="M9.88281 158.251L11.2454 161.467" stroke="#0B2936" stroke-width="0.679519" stroke-linecap="round" stroke-linejoin="round"/>
<path d="M12.2251 163.778L13.5877 166.995" stroke="#0B2936" stroke-width="0.679519" stroke-linecap="round" stroke-linejoin="round"/>
<path d="M16.1055 160.771L12.8892 162.132" stroke="#0B2936" stroke-width="0.679519" stroke-linecap="round" stroke-linejoin="round"/>
<path d="M10.5781 163.112L7.36182 164.474" stroke="#0B2936" stroke-width="0.679519" stroke-linecap="round" stroke-linejoin="round"/>
<path d="M205.282 118.75L203.792 121.909" stroke="#0B2936" stroke-width="0.679519" stroke-linecap="round" stroke-linejoin="round"/>
<path d="M202.72 124.179L201.228 127.34" stroke="#0B2936" stroke-width="0.679519" stroke-linecap="round" stroke-linejoin="round"/>
<path d="M207.55 125.072L204.391 123.582" stroke="#0B2936" stroke-width="0.679519" stroke-linecap="round" stroke-linejoin="round"/>
<path d="M202.121 122.508L198.962 121.018" stroke="#0B2936" stroke-width="0.679519" stroke-linecap="round" stroke-linejoin="round"/>
<path d="M125.11 251.651C127.804 248.127 132.848 247.452 136.372 250.146" stroke="#0B2936" stroke-width="0.679519" stroke-linecap="round" stroke-linejoin="round"/>
<path d="M125.111 251.651C127.804 248.127 127.13 243.083 123.606 240.389" stroke="#0B2936" stroke-width="0.679519" stroke-linecap="round" stroke-linejoin="round"/>
<path d="M134.89 238.856C132.196 242.38 132.87 247.424 136.394 250.118" stroke="#0B2936" stroke-width="0.679519" stroke-linecap="round" stroke-linejoin="round"/>
<path d="M134.889 238.856C132.195 242.38 127.152 243.054 123.627 240.36" stroke="#0B2936" stroke-width="0.679519" stroke-linecap="round" stroke-linejoin="round"/>
<path d="M241.174 178.203C242.18 174.975 245.613 173.177 248.839 174.183" stroke="#0B2936" stroke-width="0.679519" stroke-linecap="round" stroke-linejoin="round"/>
<path d="M241.174 178.204C242.18 174.975 240.382 171.545 237.154 170.538" stroke="#0B2936" stroke-width="0.679519" stroke-linecap="round" stroke-linejoin="round"/>
<path d="M244.826 166.491C243.82 169.72 245.618 173.15 248.847 174.157" stroke="#0B2936" stroke-width="0.679519" stroke-linecap="round" stroke-linejoin="round"/>
<path d="M244.826 166.491C243.82 169.72 240.387 171.518 237.161 170.512" stroke="#0B2936" stroke-width="0.679519" stroke-linecap="round" stroke-linejoin="round"/>
<path d="M95.083 247.874L95.4538 250.457" stroke="#0B2936" stroke-width="0.679519" stroke-linecap="round" stroke-linejoin="round"/>
<path d="M95.7212 252.315L96.0943 254.901" stroke="#0B2936" stroke-width="0.679519" stroke-linecap="round" stroke-linejoin="round"/>
<path d="M99.1012 250.881L96.5181 251.254" stroke="#0B2936" stroke-width="0.679519" stroke-linecap="round" stroke-linejoin="round"/>
<path d="M94.6593 251.521L92.0762 251.891" stroke="#0B2936" stroke-width="0.679519" stroke-linecap="round" stroke-linejoin="round"/>
<path d="M231.802 151.084L232.9 153.453" stroke="#0B2936" stroke-width="0.679519" stroke-linecap="round" stroke-linejoin="round"/>
<path d="M233.689 155.157L234.787 157.524" stroke="#0B2936" stroke-width="0.679519" stroke-linecap="round" stroke-linejoin="round"/>
<path d="M236.515 152.812L234.146 153.91" stroke="#0B2936" stroke-width="0.679519" stroke-linecap="round" stroke-linejoin="round"/>
<path d="M232.442 154.7L230.076 155.798" stroke="#0B2936" stroke-width="0.679519" stroke-linecap="round" stroke-linejoin="round"/>
<path d="M30.5498 89.2954L30.9952 91.8665" stroke="#0B2936" stroke-width="0.679519" stroke-linecap="round" stroke-linejoin="round"/>
<path d="M31.313 93.718L31.7584 96.2891" stroke="#0B2936" stroke-width="0.679519" stroke-linecap="round" stroke-linejoin="round"/>
<path d="M34.6521 92.1892L32.0786 92.6322" stroke="#0B2936" stroke-width="0.679519" stroke-linecap="round" stroke-linejoin="round"/>
<path d="M30.2298 92.9524L27.6562 93.3954" stroke="#0B2936" stroke-width="0.679519" stroke-linecap="round" stroke-linejoin="round"/>
<path d="M109.34 227.069L108.812 230.805" stroke="#0B2936" stroke-width="0.679519" stroke-linecap="round" stroke-linejoin="round"/>
<path d="M108.432 233.492L107.905 237.228" stroke="#0B2936" stroke-width="0.679519" stroke-linecap="round" stroke-linejoin="round"/>
<path d="M113.702 232.866L109.965 232.339" stroke="#0B2936" stroke-width="0.679519" stroke-linecap="round" stroke-linejoin="round"/>
<path d="M107.279 231.958L103.542 231.431" stroke="#0B2936" stroke-width="0.679519" stroke-linecap="round" stroke-linejoin="round"/>
<path d="M107.259 196.827C104.431 200.34 104.431 205.349 107.259 208.862C111.602 214.254 108.978 222.331 102.295 224.139C97.9402 225.319 94.9959 229.371 95.2198 233.877C95.5641 240.791 88.6933 245.784 82.2246 243.319C78.0093 241.713 73.245 243.261 70.7774 247.038C66.9906 252.836 58.4996 252.836 54.7128 247.038C52.2452 243.261 47.4809 241.713 43.2656 243.319C36.7969 245.784 29.9261 240.791 30.2704 233.877C30.4943 229.373 27.55 225.319 23.195 224.139C16.512 222.331 13.888 214.254 18.2309 208.862C21.0596 205.349 21.0596 200.34 18.2309 196.827C13.888 191.435 16.512 183.358 23.195 181.55C27.55 180.37 30.4943 176.318 30.2704 171.812C29.9261 164.898 36.7969 159.905 43.2656 162.37C47.4809 163.976 52.2452 162.428 54.7128 158.651C58.4996 152.853 66.9906 152.853 70.7774 158.651C73.245 162.428 78.0093 163.976 82.2246 162.37C88.6933 159.905 95.5641 164.898 95.2198 171.812C94.9959 176.316 97.9402 180.37 102.295 181.55C108.978 183.358 111.602 191.435 107.259 196.827Z" fill="#0B2936"/>
<path d="M104.588 193.214C101.759 196.726 101.759 201.736 104.588 205.248C108.931 210.639 106.306 218.715 99.6235 220.526C95.2685 221.705 92.3242 225.757 92.5505 230.261C92.8948 237.175 86.024 242.166 79.5553 239.703C75.34 238.097 70.5757 239.645 68.1105 243.423C64.3261 249.22 55.8327 249.22 52.0483 243.423C49.5831 239.645 44.8164 238.097 40.6035 239.703C34.1348 242.168 27.264 237.175 27.6083 230.261C27.8322 225.757 24.8879 221.703 20.5353 220.526C13.8524 218.718 11.2283 210.641 15.5713 205.248C18.4 201.736 18.4 196.726 15.5713 193.214C11.2283 187.824 13.8524 179.747 20.5353 177.936C24.8903 176.757 27.8346 172.705 27.6083 168.201C27.264 161.287 34.1348 156.296 40.6035 158.759C44.8188 160.365 49.5831 158.817 52.0483 155.039C55.8327 149.242 64.3261 149.242 68.1105 155.039C70.5757 158.817 75.3424 160.365 79.5553 158.759C86.024 156.294 92.8948 161.287 92.5505 168.201C92.3266 172.705 95.2709 176.759 99.6235 177.936C106.306 179.744 108.931 187.821 104.588 193.214Z" fill="url(#paint5_linear_229_2290)"/>
<path d="M60.0793 240.895C59.5304 240.895 58.5025 240.736 57.8043 239.662C54.7517 234.989 49.5975 232.199 44.0147 232.199C42.0069 232.199 40.0377 232.563 38.1551 233.278C37.8277 233.403 37.4979 233.465 37.1729 233.465C36.4458 233.465 35.726 233.148 35.1988 232.594C34.8401 232.218 34.4236 231.566 34.4717 230.601C34.8545 222.923 29.7484 215.896 22.3288 213.886C21.0938 213.551 20.6243 212.624 20.4534 212.102C20.2825 211.58 20.1188 210.554 20.9229 209.557C25.7449 203.573 25.7449 194.884 20.9229 188.897C20.1188 187.9 20.2849 186.875 20.4534 186.352C20.6243 185.83 21.0938 184.903 22.3288 184.569C29.7484 182.561 34.8545 175.531 34.4717 167.854C34.4236 166.889 34.8401 166.239 35.1988 165.861C35.726 165.307 36.4458 164.989 37.1729 164.989C37.4954 164.989 37.8253 165.052 38.1551 165.177C40.0353 165.894 42.0069 166.255 44.0147 166.255C49.5975 166.255 54.7517 163.465 57.8043 158.792C58.5049 157.721 59.5304 157.56 60.0793 157.56C60.6282 157.56 61.6562 157.719 62.3543 158.792C65.4069 163.465 70.5612 166.255 76.144 166.255C78.1517 166.255 80.121 165.892 82.0036 165.177C82.331 165.052 82.6608 164.989 82.9858 164.989C83.7153 164.989 84.4327 165.307 84.9599 165.861C85.3186 166.236 85.7351 166.889 85.6869 167.854C85.3041 175.531 90.4103 182.558 97.8299 184.569C99.0649 184.903 99.5343 185.83 99.7053 186.352C99.8762 186.875 100.04 187.9 99.2358 188.897C94.4138 194.882 94.4138 203.57 99.2358 209.555C100.04 210.552 99.8738 211.577 99.7053 212.1C99.5343 212.622 99.0649 213.549 97.8299 213.884C90.4103 215.891 85.3041 222.921 85.6869 230.598C85.7351 231.564 85.3186 232.214 84.9599 232.591C84.4327 233.145 83.7128 233.463 82.9858 233.463C82.6632 233.463 82.3334 233.4 82.0036 233.275C80.1234 232.558 78.1517 232.197 76.144 232.197C70.5612 232.197 65.4069 234.987 62.3543 239.66C61.6538 240.731 60.6282 240.892 60.0793 240.892V240.895Z" stroke="black" stroke-width="0.679519" stroke-miterlimit="10"/>
<path d="M52.8112 219.016L37.4736 203.679L43.9375 197.215L52.8112 206.088L76.2184 182.679L82.6847 189.143L52.8112 219.016Z" fill="white"/>
<path d="M184.084 98.0754C207.67 90.3693 198.726 67.2028 198.254 62.6167C197.783 58.033 198.919 52.845 203.103 50.168" stroke="#0B2936" stroke-width="0.679519" stroke-linecap="round" stroke-linejoin="round"/>
<path d="M214.375 50.5458L205.838 48.9761L205.02 48.8245L205.128 47.9987L206.269 39.3947C206.445 38.2295 207.09 37.1702 208.084 36.5347C208.132 36.5034 208.183 36.4721 208.236 36.4432C210.056 35.3815 212.415 35.8004 213.761 37.4254C214.878 38.776 215.039 40.5695 214.363 42.0308C215.961 41.8382 217.617 42.5435 218.559 44.0241C219.688 45.8032 219.358 48.1769 217.788 49.5828C217.743 49.6213 217.699 49.6623 217.654 49.6984C216.744 50.4471 215.535 50.7335 214.372 50.5434L214.375 50.5458Z" stroke="#0B2936" stroke-width="0.679519" stroke-linecap="round" stroke-linejoin="round"/>
<path d="M204.906 34.5488L203.255 30.8125" stroke="#0B2936" stroke-width="0.679519" stroke-linecap="round" stroke-linejoin="round"/>
<path d="M208.029 33.901C207.877 31.7729 207.725 29.6447 207.574 27.5166" stroke="#0B2936" stroke-width="0.679519" stroke-linecap="round" stroke-linejoin="round"/>
<path d="M212.208 33.6195C213.356 30.9714 214.507 28.3232 215.655 25.6775" stroke="#0B2936" stroke-width="0.679519" stroke-linecap="round" stroke-linejoin="round"/>
<path d="M62.082 336.297C60.8633 336.297 59.1992 336.285 57.0898 336.262C55.0039 336.215 52.9648 336.062 50.9727 335.805C47.7383 335.336 45.418 334.363 44.0117 332.887C42.7227 331.527 42.0781 329.793 42.0781 327.684C42.0781 325.082 43.4844 322.246 46.2969 319.176C48.875 316.363 51.9102 313.445 55.4023 310.422C56.293 309.648 57.4297 308.723 58.8125 307.645C60.6641 306.215 62.457 304.738 64.1914 303.215C65.9258 301.668 67.0742 300.297 67.6367 299.102C67.7773 298.797 67.8477 298.527 67.8477 298.293C67.8477 297.191 66.3945 296.641 63.4883 296.641C62.4336 296.641 61.3203 296.816 60.1484 297.168C58.9766 297.496 57.9219 298.035 56.9844 298.785C56.0703 299.535 55.3906 300.215 54.9453 300.824C54.5 301.434 54.2773 301.762 54.2773 301.809L45.1367 296.219C45.1367 296.148 45.5469 295.527 46.3672 294.355C47.1875 293.184 48.4648 291.895 50.1992 290.488C51.9336 289.082 54.1719 287.957 56.9141 287.113C58.5078 286.621 60.3008 286.375 62.293 286.375C63.6758 286.375 65.1406 286.492 66.6875 286.727C71.1875 287.523 74.375 288.906 76.25 290.875C77.8672 292.586 78.6758 294.637 78.6758 297.027C78.6758 299.512 77.7734 302.066 75.9688 304.691C74.375 306.965 72.3945 309.25 70.0273 311.547C67.6836 313.844 65.2461 316.105 62.7148 318.332C59.3398 321.309 56.5859 323.84 54.4531 325.926C56.2812 326.02 58.25 326.066 60.3594 326.066C64.1562 326.066 68.1758 325.973 72.418 325.785L76.7422 325.609L78.2891 335.84C78.1953 335.863 77.1289 335.91 75.0898 335.98C70.2148 336.191 65.8789 336.297 62.082 336.297Z" fill="#757A2E"/>
<path d="M106.328 300.836H102.707L97.4688 285.062L100.762 284.137L104.512 295.469L108.273 284.137L111.555 285.062L106.328 300.836ZM117.473 301.07C115.676 301.07 114.254 300.352 113.207 298.914C112.824 298.375 112.535 297.719 112.34 296.945C111.918 296.938 111.688 296.93 111.648 296.922L111.789 293.512L112.223 293.535C112.418 292.23 112.809 291.176 113.395 290.371C113.988 289.566 114.68 288.98 115.469 288.613C116.172 288.293 116.895 288.133 117.637 288.133C118.301 288.133 118.922 288.254 119.5 288.496C120.258 288.816 120.859 289.297 121.305 289.938C121.758 290.578 121.984 291.344 121.984 292.234V292.328C121.93 293.273 121.594 294.047 120.977 294.648C120.367 295.242 119.602 295.703 118.68 296.031C117.758 296.352 116.816 296.574 115.855 296.699C115.902 296.801 115.957 296.891 116.02 296.969C116.238 297.273 116.508 297.473 116.828 297.566C117.023 297.621 117.227 297.648 117.438 297.648C117.609 297.648 117.785 297.629 117.965 297.59C118.402 297.496 118.707 297.348 118.879 297.145L121.562 299.254C120.875 300.09 119.914 300.648 118.68 300.93C118.281 301.023 117.879 301.07 117.473 301.07ZM115.703 293.43C117.547 293.266 118.504 292.867 118.574 292.234C118.559 291.945 118.422 291.746 118.164 291.637C118.008 291.574 117.84 291.543 117.66 291.543C117.41 291.543 117.172 291.598 116.945 291.707C116.391 291.941 115.977 292.516 115.703 293.43ZM126.402 301.305L122.992 301.105C123.109 299.402 123.168 297.914 123.168 296.641C123.168 296.117 123.152 295.648 123.121 295.234C123.105 295.07 123.098 294.906 123.098 294.742C123.098 293.891 123.281 293.039 123.648 292.188C124.07 291.219 124.75 290.434 125.688 289.832C126.383 289.395 127.203 289.176 128.148 289.176C128.492 289.176 128.852 289.203 129.227 289.258C130.438 289.453 131.816 290.133 133.363 291.297L131.277 294.004C130.199 293.191 129.309 292.73 128.605 292.621C128.441 292.59 128.293 292.574 128.16 292.574C127.535 292.574 127.07 292.91 126.766 293.582C126.602 293.965 126.52 294.344 126.52 294.719L126.531 294.941C126.562 295.387 126.578 295.918 126.578 296.535C126.578 297.91 126.52 299.5 126.402 301.305ZM136.422 287.512C135.961 287.512 135.566 287.352 135.238 287.031C134.918 286.703 134.758 286.309 134.758 285.848C134.758 285.395 134.918 285.008 135.238 284.688C135.566 284.359 135.961 284.195 136.422 284.195C136.875 284.195 137.262 284.359 137.582 284.688C137.91 285.008 138.074 285.395 138.074 285.848C138.074 286.309 137.91 286.703 137.582 287.031C137.262 287.352 136.875 287.512 136.422 287.512ZM137.711 300.438L134.312 300.426L134.605 288.496L138.016 288.238L137.711 300.438ZM141.414 300.695C141.281 299.156 141.184 297.547 141.121 295.867C141.098 295.359 141.086 294.852 141.086 294.344L139.023 294.297L139.047 290.887L141.074 290.945C141.137 289.133 141.406 287.691 141.883 286.621C142.367 285.551 142.961 284.797 143.664 284.359C144.367 283.914 145.082 283.691 145.809 283.691C146.129 283.691 146.449 283.734 146.77 283.82C147.707 284.062 148.523 284.547 149.219 285.273C149.883 285.977 150.34 286.812 150.59 287.781C150.684 288.148 150.73 288.52 150.73 288.895C150.73 289.512 150.605 290.133 150.355 290.758L147.215 289.434C147.277 289.262 147.309 289.086 147.309 288.906C147.309 288.766 147.273 288.582 147.203 288.355C147.133 288.121 146.977 287.879 146.734 287.629C146.492 287.371 146.234 287.207 145.961 287.137C145.906 287.121 145.855 287.113 145.809 287.113C145.715 287.113 145.629 287.137 145.551 287.184C145.27 287.363 145.031 287.762 144.836 288.379C144.641 288.988 144.523 289.871 144.484 291.027L148.281 291.133L148.539 294.543L144.496 294.438L144.508 294.812C144.508 295.125 144.516 295.438 144.531 295.75C144.586 297.219 144.684 298.77 144.824 300.402L141.414 300.695ZM154.258 287.512C153.797 287.512 153.402 287.352 153.074 287.031C152.754 286.703 152.594 286.309 152.594 285.848C152.594 285.395 152.754 285.008 153.074 284.688C153.402 284.359 153.797 284.195 154.258 284.195C154.711 284.195 155.098 284.359 155.418 284.688C155.746 285.008 155.91 285.395 155.91 285.848C155.91 286.309 155.746 286.703 155.418 287.031C155.098 287.352 154.711 287.512 154.258 287.512ZM155.547 300.438L152.148 300.426L152.441 288.496L155.852 288.238L155.547 300.438ZM162.25 301.07C160.453 301.07 159.027 300.352 157.973 298.914C157.254 297.93 156.895 296.543 156.895 294.754C156.949 293.09 157.293 291.758 157.926 290.758C158.559 289.75 159.332 289.035 160.246 288.613C160.949 288.293 161.672 288.133 162.414 288.133C163.078 288.133 163.699 288.254 164.277 288.496C165.035 288.816 165.641 289.305 166.094 289.961C166.531 290.586 166.75 291.344 166.75 292.234V292.328L163.34 292.234C163.332 291.945 163.199 291.746 162.941 291.637C162.785 291.574 162.617 291.543 162.438 291.543C161.727 291.543 161.164 291.934 160.75 292.715C160.484 293.223 160.336 293.918 160.305 294.801C160.305 295.816 160.465 296.547 160.785 296.992C161.113 297.43 161.59 297.648 162.215 297.648C162.387 297.648 162.562 297.629 162.742 297.59C163.172 297.496 163.473 297.348 163.645 297.145L166.34 299.254C165.645 300.09 164.68 300.648 163.445 300.93C163.047 301.023 162.648 301.07 162.25 301.07ZM177.473 301.41L175.246 300.273C174.434 300.625 173.684 300.801 172.996 300.801C172.137 300.801 171.27 300.566 170.395 300.098C169.699 299.73 169.113 299.246 168.637 298.645C168.098 297.965 167.828 297.195 167.828 296.336C167.828 295.508 168.148 294.719 168.789 293.969C169.367 293.344 170.031 292.945 170.781 292.773C171.172 292.688 171.574 292.645 171.988 292.645C172.473 292.645 173.023 292.715 173.641 292.855L173.617 292.797C173.312 292.359 172.797 292.141 172.07 292.141C171.898 292.141 171.719 292.156 171.531 292.188C170.969 292.273 170.465 292.461 170.02 292.75L168.156 289.891C168.992 289.344 169.941 288.984 171.004 288.812C171.363 288.75 171.719 288.719 172.07 288.719C173.992 288.719 175.461 289.453 176.477 290.922C176.867 291.516 177.133 292.238 177.273 293.09C177.492 294.434 177.668 295.863 177.801 297.379C177.848 297.918 177.871 298.434 177.871 298.926C177.871 299.191 177.855 299.566 177.824 300.051C177.793 300.535 177.676 300.988 177.473 301.41ZM172.996 297.402L173.113 297.391C173.559 297.289 173.965 297.145 174.332 296.957L174.309 296.676C173.738 296.426 173.152 296.242 172.551 296.125C172.324 296.078 172.125 296.055 171.953 296.055C171.68 296.055 171.477 296.113 171.344 296.23C171.273 296.316 171.238 296.371 171.238 296.395C171.238 296.418 171.27 296.469 171.332 296.547C171.496 296.75 171.723 296.93 172.012 297.086C172.402 297.297 172.73 297.402 172.996 297.402ZM188.23 301.422L184.82 301.398L185.277 284.148L188.699 283.902L188.23 301.422ZM199.363 301.41L197.137 300.273C196.324 300.625 195.574 300.801 194.887 300.801C194.027 300.801 193.16 300.566 192.285 300.098C191.59 299.73 191.004 299.246 190.527 298.645C189.988 297.965 189.719 297.195 189.719 296.336C189.719 295.508 190.039 294.719 190.68 293.969C191.258 293.344 191.922 292.945 192.672 292.773C193.062 292.688 193.465 292.645 193.879 292.645C194.363 292.645 194.914 292.715 195.531 292.855L195.508 292.797C195.203 292.359 194.688 292.141 193.961 292.141C193.789 292.141 193.609 292.156 193.422 292.188C192.859 292.273 192.355 292.461 191.91 292.75L190.047 289.891C190.883 289.344 191.832 288.984 192.895 288.812C193.254 288.75 193.609 288.719 193.961 288.719C195.883 288.719 197.352 289.453 198.367 290.922C198.758 291.516 199.023 292.238 199.164 293.09C199.383 294.434 199.559 295.863 199.691 297.379C199.738 297.918 199.762 298.434 199.762 298.926C199.762 299.191 199.746 299.566 199.715 300.051C199.684 300.535 199.566 300.988 199.363 301.41ZM194.887 297.402L195.004 297.391C195.449 297.289 195.855 297.145 196.223 296.957L196.199 296.676C195.629 296.426 195.043 296.242 194.441 296.125C194.215 296.078 194.016 296.055 193.844 296.055C193.57 296.055 193.367 296.113 193.234 296.23C193.164 296.316 193.129 296.371 193.129 296.395C193.129 296.418 193.16 296.469 193.223 296.547C193.387 296.75 193.613 296.93 193.902 297.086C194.293 297.297 194.621 297.402 194.887 297.402ZM104.289 336.848C103.57 336.848 102.855 336.625 102.145 336.18C101.434 335.734 100.836 334.969 100.352 333.883C99.8672 332.789 99.6016 331.312 99.5547 329.453L99.543 328.07L99.5547 326.699H97.4688V323.266H99.6719C99.7266 322.086 99.8008 320.941 99.8945 319.832L103.305 320.125C103.211 321.211 103.141 322.258 103.094 323.266H107.91V326.699H102.965L102.953 328.047C102.953 328.5 102.957 328.949 102.965 329.395C103.02 331.621 103.375 332.938 104.031 333.344C104.117 333.398 104.207 333.426 104.301 333.426C104.348 333.426 104.395 333.418 104.441 333.402C104.715 333.332 104.973 333.168 105.215 332.91C105.457 332.652 105.629 332.363 105.73 332.043C105.777 331.902 105.801 331.762 105.801 331.621C105.801 331.449 105.766 331.277 105.695 331.105L108.836 329.781C109.086 330.406 109.211 331.023 109.211 331.633C109.211 332.008 109.125 332.531 108.953 333.203C108.781 333.867 108.363 334.551 107.699 335.254C107.004 335.988 106.188 336.477 105.25 336.719C104.93 336.805 104.609 336.848 104.289 336.848ZM115.598 336.52V336.508H115.375V336.52C115.219 336.52 115.066 336.512 114.918 336.496C114.098 336.41 113.383 336.176 112.773 335.793C112.172 335.41 111.688 334.941 111.32 334.387C110.688 333.395 110.371 332.383 110.371 331.352C110.371 331.195 110.379 331.039 110.395 330.883C110.426 330.547 110.441 330.145 110.441 329.676C110.441 328.559 110.383 327.227 110.266 325.68L113.676 325.457C113.793 327.051 113.852 328.449 113.852 329.652C113.852 330.238 113.832 330.754 113.793 331.199L113.781 331.363C113.781 331.73 113.902 332.094 114.145 332.453C114.262 332.633 114.406 332.777 114.578 332.887C114.805 333.035 115.094 333.109 115.445 333.109C116 333.109 116.434 332.895 116.746 332.465V332.453C116.98 332.094 117.098 331.73 117.098 331.363L117.086 331.199C117.047 330.754 117.027 330.238 117.027 329.652C117.027 328.449 117.086 327.051 117.203 325.457L120.613 325.68C120.496 327.227 120.438 328.559 120.438 329.676C120.438 330.145 120.453 330.547 120.484 330.883C120.5 331.031 120.508 331.184 120.508 331.34C120.508 332.129 120.32 332.926 119.945 333.73C119.875 333.871 119.797 334.012 119.711 334.152L119.699 334.188H119.688L119.582 334.363L119.559 334.387C119.191 334.941 118.703 335.41 118.094 335.793C117.492 336.176 116.781 336.41 115.961 336.496C115.844 336.512 115.723 336.52 115.598 336.52ZM131.277 337.41L129.051 336.273C128.238 336.625 127.488 336.801 126.801 336.801C125.941 336.801 125.074 336.566 124.199 336.098C123.504 335.73 122.918 335.246 122.441 334.645C121.902 333.965 121.633 333.195 121.633 332.336C121.633 331.508 121.953 330.719 122.594 329.969C123.172 329.344 123.836 328.945 124.586 328.773C124.977 328.688 125.379 328.645 125.793 328.645C126.277 328.645 126.828 328.715 127.445 328.855L127.422 328.797C127.117 328.359 126.602 328.141 125.875 328.141C125.703 328.141 125.523 328.156 125.336 328.188C124.773 328.273 124.27 328.461 123.824 328.75L121.961 325.891C122.797 325.344 123.746 324.984 124.809 324.812C125.168 324.75 125.523 324.719 125.875 324.719C127.797 324.719 129.266 325.453 130.281 326.922C130.672 327.516 130.938 328.238 131.078 329.09C131.297 330.434 131.473 331.863 131.605 333.379C131.652 333.918 131.676 334.434 131.676 334.926C131.676 335.191 131.66 335.566 131.629 336.051C131.598 336.535 131.48 336.988 131.277 337.41ZM126.801 333.402L126.918 333.391C127.363 333.289 127.77 333.145 128.137 332.957L128.113 332.676C127.543 332.426 126.957 332.242 126.355 332.125C126.129 332.078 125.93 332.055 125.758 332.055C125.484 332.055 125.281 332.113 125.148 332.23C125.078 332.316 125.043 332.371 125.043 332.395C125.043 332.418 125.074 332.469 125.137 332.547C125.301 332.75 125.527 332.93 125.816 333.086C126.207 333.297 126.535 333.402 126.801 333.402ZM140.734 323.512C140.273 323.512 139.879 323.352 139.551 323.031C139.23 322.703 139.07 322.309 139.07 321.848C139.07 321.395 139.23 321.008 139.551 320.688C139.879 320.359 140.273 320.195 140.734 320.195C141.188 320.195 141.574 320.359 141.895 320.688C142.223 321.008 142.387 321.395 142.387 321.848C142.387 322.309 142.223 322.703 141.895 323.031C141.574 323.352 141.188 323.512 140.734 323.512ZM142.023 336.438L138.625 336.426L138.918 324.496L142.328 324.238L142.023 336.438ZM154.715 337.422L151.305 337.398L151.316 336.93C149.582 336.859 148.148 336.598 147.016 336.145C145.883 335.684 145.031 335.102 144.461 334.398C143.758 333.523 143.406 332.586 143.406 331.586L143.418 331.223C143.512 330.152 143.938 329.16 144.695 328.246C145.383 327.418 146.316 326.738 147.496 326.207C148.684 325.676 150.059 325.406 151.621 325.398L151.762 320.148L155.184 319.902L154.715 337.422ZM151.41 333.531L151.539 328.82C150.555 328.828 149.703 328.984 148.984 329.289C148.266 329.586 147.711 329.969 147.32 330.438C146.992 330.836 146.828 331.211 146.828 331.562C146.828 331.789 146.914 332.008 147.086 332.219C147.375 332.586 147.875 332.887 148.586 333.121C149.297 333.355 150.238 333.492 151.41 333.531ZM161.957 337.07C160.16 337.07 158.738 336.352 157.691 334.914C157.309 334.375 157.02 333.719 156.824 332.945C156.402 332.938 156.172 332.93 156.133 332.922L156.273 329.512L156.707 329.535C156.902 328.23 157.293 327.176 157.879 326.371C158.473 325.566 159.164 324.98 159.953 324.613C160.656 324.293 161.379 324.133 162.121 324.133C162.785 324.133 163.406 324.254 163.984 324.496C164.742 324.816 165.344 325.297 165.789 325.938C166.242 326.578 166.469 327.344 166.469 328.234V328.328C166.414 329.273 166.078 330.047 165.461 330.648C164.852 331.242 164.086 331.703 163.164 332.031C162.242 332.352 161.301 332.574 160.34 332.699C160.387 332.801 160.441 332.891 160.504 332.969C160.723 333.273 160.992 333.473 161.312 333.566C161.508 333.621 161.711 333.648 161.922 333.648C162.094 333.648 162.27 333.629 162.449 333.59C162.887 333.496 163.191 333.348 163.363 333.145L166.047 335.254C165.359 336.09 164.398 336.648 163.164 336.93C162.766 337.023 162.363 337.07 161.957 337.07ZM160.188 329.43C162.031 329.266 162.988 328.867 163.059 328.234C163.043 327.945 162.906 327.746 162.648 327.637C162.492 327.574 162.324 327.543 162.145 327.543C161.895 327.543 161.656 327.598 161.43 327.707C160.875 327.941 160.461 328.516 160.188 329.43ZM170.887 337.375L167.477 337.363L167.828 327.449L167.77 327.379L167.828 327.332L167.934 324.414L171.344 324.227L171.297 325.656C171.969 325.453 172.645 325.352 173.324 325.352C173.457 325.352 173.758 325.367 174.227 325.398C174.703 325.422 175.316 325.656 176.066 326.102C176.684 326.492 177.172 326.961 177.531 327.508C177.961 328.164 178.215 328.785 178.293 329.371C178.34 329.746 178.363 330.129 178.363 330.52C178.363 330.738 178.355 330.961 178.34 331.188C178.324 331.484 178.316 331.793 178.316 332.113V332.441C178.371 334.145 178.441 335.5 178.527 336.508L175.117 336.766C175.016 335.406 174.945 333.992 174.906 332.523C174.875 330.688 174.578 329.512 174.016 328.996C173.781 328.785 173.48 328.68 173.113 328.68C172.59 328.68 171.941 328.891 171.168 329.312L170.887 337.375ZM184.938 336.848C184.219 336.848 183.504 336.625 182.793 336.18C182.082 335.734 181.484 334.969 181 333.883C180.516 332.789 180.25 331.312 180.203 329.453L180.191 328.07L180.203 326.699H178.117V323.266H180.32C180.375 322.086 180.449 320.941 180.543 319.832L183.953 320.125C183.859 321.211 183.789 322.258 183.742 323.266H188.559V326.699H183.613L183.602 328.047C183.602 328.5 183.605 328.949 183.613 329.395C183.668 331.621 184.023 332.938 184.68 333.344C184.766 333.398 184.855 333.426 184.949 333.426C184.996 333.426 185.043 333.418 185.09 333.402C185.363 333.332 185.621 333.168 185.863 332.91C186.105 332.652 186.277 332.363 186.379 332.043C186.426 331.902 186.449 331.762 186.449 331.621C186.449 331.449 186.414 331.277 186.344 331.105L189.484 329.781C189.734 330.406 189.859 331.023 189.859 331.633C189.859 332.008 189.773 332.531 189.602 333.203C189.43 333.867 189.012 334.551 188.348 335.254C187.652 335.988 186.836 336.477 185.898 336.719C185.578 336.805 185.258 336.848 184.938 336.848ZM193.375 323.512C192.914 323.512 192.52 323.352 192.191 323.031C191.871 322.703 191.711 322.309 191.711 321.848C191.711 321.395 191.871 321.008 192.191 320.688C192.52 320.359 192.914 320.195 193.375 320.195C193.828 320.195 194.215 320.359 194.535 320.688C194.863 321.008 195.027 321.395 195.027 321.848C195.027 322.309 194.863 322.703 194.535 323.031C194.215 323.352 193.828 323.512 193.375 323.512ZM194.664 336.438L191.266 336.426L191.559 324.496L194.969 324.238L194.664 336.438ZM202.797 336.848C202.078 336.848 201.363 336.625 200.652 336.18C199.941 335.734 199.344 334.969 198.859 333.883C198.375 332.789 198.109 331.312 198.062 329.453L198.051 328.07L198.062 326.699H195.977V323.266H198.18C198.234 322.086 198.309 320.941 198.402 319.832L201.812 320.125C201.719 321.211 201.648 322.258 201.602 323.266H206.418V326.699H201.473L201.461 328.047C201.461 328.5 201.465 328.949 201.473 329.395C201.527 331.621 201.883 332.938 202.539 333.344C202.625 333.398 202.715 333.426 202.809 333.426C202.855 333.426 202.902 333.418 202.949 333.402C203.223 333.332 203.48 333.168 203.723 332.91C203.965 332.652 204.137 332.363 204.238 332.043C204.285 331.902 204.309 331.762 204.309 331.621C204.309 331.449 204.273 331.277 204.203 331.105L207.344 329.781C207.594 330.406 207.719 331.023 207.719 331.633C207.719 332.008 207.633 332.531 207.461 333.203C207.289 333.867 206.871 334.551 206.207 335.254C205.512 335.988 204.695 336.477 203.758 336.719C203.438 336.805 203.117 336.848 202.797 336.848ZM218.02 337.363L215.793 336.227C214.98 336.578 214.23 336.754 213.543 336.754C212.684 336.754 211.816 336.52 210.941 336.051C210.246 335.684 209.656 335.195 209.172 334.586C208.633 333.906 208.363 333.129 208.363 332.254C208.363 331.457 208.688 330.68 209.336 329.922C209.914 329.297 210.578 328.898 211.328 328.727C211.719 328.641 212.117 328.598 212.523 328.598C212.984 328.598 213.539 328.668 214.188 328.809L214.152 328.75C213.855 328.312 213.344 328.094 212.617 328.094C212.438 328.094 212.258 328.109 212.078 328.141C211.516 328.227 211.012 328.414 210.566 328.703L208.691 325.844C209.535 325.297 210.488 324.938 211.551 324.766C211.91 324.703 212.266 324.672 212.617 324.672C214.539 324.672 216.008 325.406 217.023 326.875C217.414 327.461 217.68 328.184 217.82 329.043C218.039 330.387 218.215 331.816 218.348 333.332C218.395 333.871 218.418 334.387 218.418 334.879C218.418 335.145 218.402 335.52 218.371 336.004C218.34 336.488 218.223 336.941 218.02 337.363ZM213.543 333.355L213.66 333.344C214.098 333.242 214.504 333.098 214.879 332.91L214.855 332.629C214.285 332.379 213.695 332.195 213.086 332.078C212.867 332.031 212.672 332.008 212.5 332.008C212.227 332.008 212.023 332.066 211.891 332.184C211.812 332.27 211.773 332.32 211.773 332.336C211.781 332.367 211.816 332.422 211.879 332.5C212.043 332.703 212.27 332.883 212.559 333.039C212.949 333.25 213.277 333.355 213.543 333.355ZM212.512 323.477C212.035 323.18 211.676 322.832 211.434 322.434C211.191 322.027 211.023 321.629 210.93 321.238C210.844 320.848 210.801 320.52 210.801 320.254V319.844L212.512 319.984V320.043C212.512 321.004 212.801 321.656 213.379 322L212.512 323.477Z" fill="#757A2E"/>
<defs>
<linearGradient id="paint0_linear_229_2290" x1="149.957" y1="98.2246" x2="149.957" y2="67.0054" gradientUnits="userSpaceOnUse">
<stop stop-color="#EF8450"/>
<stop offset="1" stop-color="#F0854F" stop-opacity="0"/>
</linearGradient>
<linearGradient id="paint1_linear_229_2290" x1="104.994" y1="98.2271" x2="104.994" y2="57.7249" gradientUnits="userSpaceOnUse">
<stop stop-color="#EF8450"/>
<stop offset="1" stop-color="#F0854F" stop-opacity="0"/>
</linearGradient>
<linearGradient id="paint2_linear_229_2290" x1="172.673" y1="115.194" x2="172.673" y2="98.2268" gradientUnits="userSpaceOnUse">
<stop stop-color="#EF8450"/>
<stop offset="1" stop-color="#F0854F" stop-opacity="0"/>
</linearGradient>
<linearGradient id="paint3_linear_229_2290" x1="170.193" y1="149.83" x2="170.193" y2="112.303" gradientUnits="userSpaceOnUse">
<stop stop-color="#EF8450"/>
<stop offset="1" stop-color="#F0854F" stop-opacity="0"/>
</linearGradient>
<linearGradient id="paint4_linear_229_2290" x1="127.411" y1="199.603" x2="127.411" y2="224.117" gradientUnits="userSpaceOnUse">
<stop stop-color="#0B2936" stop-opacity="0"/>
<stop offset="1" stop-color="#0B2936"/>
</linearGradient>
<linearGradient id="paint5_linear_229_2290" x1="90.3862" y1="237.091" x2="29.7725" y2="161.373" gradientUnits="userSpaceOnUse">
<stop stop-color="#7B8030"/>
<stop offset="0.23" stop-color="#7E8231"/>
<stop offset="0.4" stop-color="#888935"/>
<stop offset="0.57" stop-color="#98963D"/>
<stop offset="0.72" stop-color="#B0A748"/>
<stop offset="0.87" stop-color="#CEBD55"/>
<stop offset="1" stop-color="#F2D866"/>
</linearGradient>
</defs>
</svg>
