<svg width="260" height="360" viewBox="0 0 260 360" fill="none" xmlns="http://www.w3.org/2000/svg">
<path d="M19.8251 102.763C9.76692 120.688 0.729509 145.34 4.47543 168.574C9.96914 202.653 33.4077 218.513 55.3632 228.131C106.612 250.58 186.617 273.994 229.204 213.234C234.758 205.309 239.231 196.042 242.551 186.023C257.01 142.384 266.081 65.585 238.779 27.9452C221.144 3.63517 192.749 6.97424 170.086 10.4554C117.106 18.5948 53.9428 41.9587 19.8251 102.763Z" fill="#EF8450"/>
<path d="M26.9583 169.151L25.7017 164.748" stroke="#0B2936" stroke-width="0.679519" stroke-linecap="round" stroke-linejoin="round"/>
<path d="M17.9712 167.979L20.1932 163.975" stroke="#0B2936" stroke-width="0.679519" stroke-linecap="round" stroke-linejoin="round"/>
<path d="M12.4438 160.793L16.847 159.534" stroke="#0B2936" stroke-width="0.679519" stroke-linecap="round" stroke-linejoin="round"/>
<path d="M13.6162 151.804L17.6197 154.026" stroke="#0B2936" stroke-width="0.679519" stroke-linecap="round" stroke-linejoin="round"/>
<path d="M20.8022 146.279L22.0613 150.68" stroke="#0B2936" stroke-width="0.679519" stroke-linecap="round" stroke-linejoin="round"/>
<path d="M29.7919 147.451L27.5698 151.455" stroke="#0B2936" stroke-width="0.679519" stroke-linecap="round" stroke-linejoin="round"/>
<path d="M35.3168 154.637L30.916 155.896" stroke="#0B2936" stroke-width="0.679519" stroke-linecap="round" stroke-linejoin="round"/>
<path d="M34.1441 163.624L30.1406 161.402" stroke="#0B2936" stroke-width="0.679519" stroke-linecap="round" stroke-linejoin="round"/>
<path d="M35.7212 172.833L31.0532 167.06" stroke="#0B2936" stroke-width="0.679519" stroke-linecap="round" stroke-linejoin="round"/>
<path d="M21.5635 176.776L22.3435 169.395" stroke="#0B2936" stroke-width="0.679519" stroke-linecap="round" stroke-linejoin="round"/>
<path d="M8.76318 169.553L14.5361 164.885" stroke="#0B2936" stroke-width="0.679519" stroke-linecap="round" stroke-linejoin="round"/>
<path d="M4.81982 155.396L12.2009 156.178" stroke="#0B2936" stroke-width="0.679519" stroke-linecap="round" stroke-linejoin="round"/>
<path d="M12.042 142.595L16.71 148.368" stroke="#0B2936" stroke-width="0.679519" stroke-linecap="round" stroke-linejoin="round"/>
<path d="M26.1999 138.652L25.4199 146.036" stroke="#0B2936" stroke-width="0.679519" stroke-linecap="round" stroke-linejoin="round"/>
<path d="M39 145.874L33.2271 150.542" stroke="#0B2936" stroke-width="0.679519" stroke-linecap="round" stroke-linejoin="round"/>
<path d="M42.9436 160.032L35.5601 159.252" stroke="#0B2936" stroke-width="0.679519" stroke-linecap="round" stroke-linejoin="round"/>
<path d="M38.213 176.133L37.2524 174.946" stroke="#0B2936" stroke-width="0.679519" stroke-linecap="round" stroke-linejoin="round"/>
<path d="M20.9902 180.873L21.1515 179.354" stroke="#0B2936" stroke-width="0.679519" stroke-linecap="round" stroke-linejoin="round"/>
<path d="M5.4624 172.045L6.64925 171.087" stroke="#0B2936" stroke-width="0.679519" stroke-linecap="round" stroke-linejoin="round"/>
<path d="M0.722168 154.825L2.24124 154.984" stroke="#0B2936" stroke-width="0.679519" stroke-linecap="round" stroke-linejoin="round"/>
<path d="M9.55029 139.295L10.5084 140.482" stroke="#0B2936" stroke-width="0.679519" stroke-linecap="round" stroke-linejoin="round"/>
<path d="M26.7702 134.555L26.6113 136.074" stroke="#0B2936" stroke-width="0.679519" stroke-linecap="round" stroke-linejoin="round"/>
<path d="M42.3006 143.383L41.1138 144.343" stroke="#0B2936" stroke-width="0.679519" stroke-linecap="round" stroke-linejoin="round"/>
<path d="M47.0406 160.605L45.5215 160.444" stroke="#0B2936" stroke-width="0.679519" stroke-linecap="round" stroke-linejoin="round"/>
<path d="M37.9455 165.868L36.6118 165.126" stroke="#0B2936" stroke-width="0.679519" stroke-linecap="round" stroke-linejoin="round"/>
<path d="M28.0605 173.425L27.6416 171.956" stroke="#0B2936" stroke-width="0.679519" stroke-linecap="round" stroke-linejoin="round"/>
<path d="M15.7275 171.778L16.469 170.445" stroke="#0B2936" stroke-width="0.679519" stroke-linecap="round" stroke-linejoin="round"/>
<path d="M8.17041 161.896L9.63893 161.474" stroke="#0B2936" stroke-width="0.679519" stroke-linecap="round" stroke-linejoin="round"/>
<path d="M9.81689 149.562L11.1506 150.304" stroke="#0B2936" stroke-width="0.679519" stroke-linecap="round" stroke-linejoin="round"/>
<path d="M19.6997 142.006L20.121 143.472" stroke="#0B2936" stroke-width="0.679519" stroke-linecap="round" stroke-linejoin="round"/>
<path d="M32.0325 143.65L31.291 144.986" stroke="#0B2936" stroke-width="0.679519" stroke-linecap="round" stroke-linejoin="round"/>
<path d="M39.5896 153.535L38.1235 153.954" stroke="#0B2936" stroke-width="0.679519" stroke-linecap="round" stroke-linejoin="round"/>
<path d="M42.0044 168.607C52.0698 174.195 62.6527 184.296 67.807 198.712" stroke="#0B2936" stroke-width="0.679519" stroke-linecap="round" stroke-linejoin="round"/>
<path d="M33.22 131.719C32.5651 129.427 33.8916 127.039 36.1811 126.384" stroke="#0B2936" stroke-width="0.679519" stroke-linecap="round" stroke-linejoin="round"/>
<path d="M33.2201 131.719C32.5653 129.427 30.1771 128.103 27.8853 128.757" stroke="#0B2936" stroke-width="0.679519" stroke-linecap="round" stroke-linejoin="round"/>
<path d="M30.8413 123.406C31.4961 125.698 33.8843 127.022 36.1761 126.367" stroke="#0B2936" stroke-width="0.679519" stroke-linecap="round" stroke-linejoin="round"/>
<path d="M30.8415 123.406C31.4963 125.698 30.1698 128.086 27.8804 128.741" stroke="#0B2936" stroke-width="0.679519" stroke-linecap="round" stroke-linejoin="round"/>
<path d="M30.5161 182.113L31.5344 184.516" stroke="#0B2936" stroke-width="0.679519" stroke-linecap="round" stroke-linejoin="round"/>
<path d="M32.2661 186.244L33.2844 188.649" stroke="#0B2936" stroke-width="0.679519" stroke-linecap="round" stroke-linejoin="round"/>
<path d="M35.1696 183.996L32.7646 185.014" stroke="#0B2936" stroke-width="0.679519" stroke-linecap="round" stroke-linejoin="round"/>
<path d="M31.0364 185.746L28.6338 186.764" stroke="#0B2936" stroke-width="0.679519" stroke-linecap="round" stroke-linejoin="round"/>
<path d="M231.665 177.14L233.213 172.83" stroke="#0B2936" stroke-width="0.679519" stroke-linecap="round" stroke-linejoin="round"/>
<path d="M240.712 176.569L238.76 172.426" stroke="#0B2936" stroke-width="0.679519" stroke-linecap="round" stroke-linejoin="round"/>
<path d="M246.704 169.765L242.395 168.218" stroke="#0B2936" stroke-width="0.679519" stroke-linecap="round" stroke-linejoin="round"/>
<path d="M246.131 160.719L241.988 162.671" stroke="#0B2936" stroke-width="0.679519" stroke-linecap="round" stroke-linejoin="round"/>
<path d="M239.328 154.727L237.78 159.036" stroke="#0B2936" stroke-width="0.679519" stroke-linecap="round" stroke-linejoin="round"/>
<path d="M230.283 155.3L232.233 159.443" stroke="#0B2936" stroke-width="0.679519" stroke-linecap="round" stroke-linejoin="round"/>
<path d="M224.291 162.1L228.598 163.651" stroke="#0B2936" stroke-width="0.679519" stroke-linecap="round" stroke-linejoin="round"/>
<path d="M224.862 171.148L229.005 169.198" stroke="#0B2936" stroke-width="0.679519" stroke-linecap="round" stroke-linejoin="round"/>
<path d="M222.678 180.231L227.719 174.783" stroke="#0B2936" stroke-width="0.679519" stroke-linecap="round" stroke-linejoin="round"/>
<path d="M236.543 185.108L236.254 177.688" stroke="#0B2936" stroke-width="0.679519" stroke-linecap="round" stroke-linejoin="round"/>
<path d="M249.795 178.753L244.345 173.711" stroke="#0B2936" stroke-width="0.679519" stroke-linecap="round" stroke-linejoin="round"/>
<path d="M254.67 164.888L247.253 165.177" stroke="#0B2936" stroke-width="0.679519" stroke-linecap="round" stroke-linejoin="round"/>
<path d="M248.315 151.635L243.273 157.086" stroke="#0B2936" stroke-width="0.679519" stroke-linecap="round" stroke-linejoin="round"/>
<path d="M234.451 146.76L234.74 154.178" stroke="#0B2936" stroke-width="0.679519" stroke-linecap="round" stroke-linejoin="round"/>
<path d="M221.2 153.116L226.648 158.157" stroke="#0B2936" stroke-width="0.679519" stroke-linecap="round" stroke-linejoin="round"/>
<path d="M216.323 166.981L223.742 166.692" stroke="#0B2936" stroke-width="0.679519" stroke-linecap="round" stroke-linejoin="round"/>
<path d="M219.972 183.36L221.007 182.238" stroke="#0B2936" stroke-width="0.679519" stroke-linecap="round" stroke-linejoin="round"/>
<path d="M236.841 189.234L236.781 187.708" stroke="#0B2936" stroke-width="0.679519" stroke-linecap="round" stroke-linejoin="round"/>
<path d="M252.922 181.458L251.8 180.421" stroke="#0B2936" stroke-width="0.679519" stroke-linecap="round" stroke-linejoin="round"/>
<path d="M258.796 164.59L257.27 164.65" stroke="#0B2936" stroke-width="0.679519" stroke-linecap="round" stroke-linejoin="round"/>
<path d="M251.023 148.508L249.985 149.63" stroke="#0B2936" stroke-width="0.679519" stroke-linecap="round" stroke-linejoin="round"/>
<path d="M234.154 142.634L234.212 144.16" stroke="#0B2936" stroke-width="0.679519" stroke-linecap="round" stroke-linejoin="round"/>
<path d="M218.07 150.408L219.192 151.445" stroke="#0B2936" stroke-width="0.679519" stroke-linecap="round" stroke-linejoin="round"/>
<path d="M212.196 167.276L213.723 167.219" stroke="#0B2936" stroke-width="0.679519" stroke-linecap="round" stroke-linejoin="round"/>
<path d="M220.921 173.133L222.303 172.481" stroke="#0B2936" stroke-width="0.679519" stroke-linecap="round" stroke-linejoin="round"/>
<path d="M230.281 181.331L230.796 179.894" stroke="#0B2936" stroke-width="0.679519" stroke-linecap="round" stroke-linejoin="round"/>
<path d="M242.696 180.51L242.046 179.128" stroke="#0B2936" stroke-width="0.679519" stroke-linecap="round" stroke-linejoin="round"/>
<path d="M250.893 171.15L249.456 170.632" stroke="#0B2936" stroke-width="0.679519" stroke-linecap="round" stroke-linejoin="round"/>
<path d="M250.072 158.735L248.69 159.385" stroke="#0B2936" stroke-width="0.679519" stroke-linecap="round" stroke-linejoin="round"/>
<path d="M240.712 150.538L240.197 151.972" stroke="#0B2936" stroke-width="0.679519" stroke-linecap="round" stroke-linejoin="round"/>
<path d="M228.297 151.358L228.95 152.738" stroke="#0B2936" stroke-width="0.679519" stroke-linecap="round" stroke-linejoin="round"/>
<path d="M220.1 160.719L221.537 161.234" stroke="#0B2936" stroke-width="0.679519" stroke-linecap="round" stroke-linejoin="round"/>
<path d="M216.688 175.596C208.886 179.795 202.133 185.312 200.188 199.23" stroke="#0B2936" stroke-width="0.679519" stroke-linecap="round" stroke-linejoin="round"/>
<path d="M210.056 196.093C211.919 193.654 215.41 193.187 217.848 195.05" stroke="#0B2936" stroke-width="0.679519" stroke-linecap="round" stroke-linejoin="round"/>
<path d="M210.056 196.093C211.919 193.654 211.454 190.163 209.013 188.3" stroke="#0B2936" stroke-width="0.679519" stroke-linecap="round" stroke-linejoin="round"/>
<path d="M216.82 187.241C214.957 189.68 215.422 193.17 217.863 195.034" stroke="#0B2936" stroke-width="0.679519" stroke-linecap="round" stroke-linejoin="round"/>
<path d="M216.821 187.241C214.957 189.68 211.467 190.147 209.028 188.283" stroke="#0B2936" stroke-width="0.679519" stroke-linecap="round" stroke-linejoin="round"/>
<path d="M245.731 133.459L246.102 136.045" stroke="#0B2936" stroke-width="0.679519" stroke-linecap="round" stroke-linejoin="round"/>
<path d="M246.369 137.904L246.742 140.487" stroke="#0B2936" stroke-width="0.679519" stroke-linecap="round" stroke-linejoin="round"/>
<path d="M249.749 136.469L247.166 136.839" stroke="#0B2936" stroke-width="0.679519" stroke-linecap="round" stroke-linejoin="round"/>
<path d="M245.307 137.107L242.722 137.48" stroke="#0B2936" stroke-width="0.679519" stroke-linecap="round" stroke-linejoin="round"/>
<path d="M201.281 168.8L200.915 171.386" stroke="#0B2936" stroke-width="0.679519" stroke-linecap="round" stroke-linejoin="round"/>
<path d="M200.653 173.244L200.287 175.83" stroke="#0B2936" stroke-width="0.679519" stroke-linecap="round" stroke-linejoin="round"/>
<path d="M204.297 172.811L201.711 172.445" stroke="#0B2936" stroke-width="0.679519" stroke-linecap="round" stroke-linejoin="round"/>
<path d="M199.853 172.183L197.268 171.819" stroke="#0B2936" stroke-width="0.679519" stroke-linecap="round" stroke-linejoin="round"/>
<path d="M204.788 148.554C216.693 145.33 221.368 130.944 213.631 121.338C208.59 115.079 208.59 106.155 213.631 99.8977C221.368 90.2921 216.693 75.9031 204.788 72.682C197.032 70.5827 191.786 63.3629 192.186 55.3366C192.8 43.0179 180.56 34.1249 169.034 38.516C161.525 41.376 153.036 38.6196 148.643 31.8909C141.9 21.5631 126.769 21.5631 120.026 31.8909C115.632 38.6196 107.144 41.376 99.6353 38.516C88.1086 34.1249 75.8693 43.0179 76.4832 55.3366C76.8829 63.3629 71.6371 70.5827 63.8805 72.682C51.9758 75.9055 47.3006 90.2921 55.038 99.8977C60.0792 106.157 60.0792 115.081 55.038 121.338C47.3006 130.944 51.9758 145.333 63.8805 148.554C71.6371 150.653 76.8829 157.873 76.4832 165.899C76.411 167.348 76.5193 168.75 76.7793 170.088L56.6655 225.35L97.3241 205.28L115.57 246.79L133.664 197.075C134.109 197.092 134.557 197.092 135.002 197.075L153.097 246.79L171.342 205.28L212.001 225.35L191.887 170.088C192.15 168.75 192.255 167.348 192.183 165.899C191.784 157.873 197.029 150.653 204.786 148.554H204.788Z" fill="#0B2936"/>
<path d="M80.7057 141.924L139.61 163.364L111.234 241.326L92.9907 199.815L52.332 219.885L80.7057 141.924Z" fill="url(#paint0_linear_229_2296)"/>
<path d="M179.294 141.924L120.39 163.364L148.766 241.326L167.009 199.815L207.668 219.885L179.294 141.924Z" fill="url(#paint1_linear_229_2296)"/>
<path d="M209.297 94.428C204.256 100.687 204.256 109.611 209.297 115.868C217.035 125.474 212.36 139.863 200.455 143.084C192.698 145.183 187.452 152.403 187.852 160.429C188.466 172.748 176.227 181.641 164.7 177.25C157.191 174.39 148.703 177.146 144.309 183.875C137.566 194.203 122.436 194.203 115.693 183.875C111.299 177.146 102.81 174.39 95.3018 177.25C83.7751 181.641 71.5358 172.748 72.1497 160.429C72.5494 152.403 67.3036 145.183 59.547 143.084C47.6423 139.861 42.9671 125.474 50.7045 115.868C55.7457 109.609 55.7457 100.685 50.7045 94.428C42.9671 84.8224 47.6423 70.4333 59.547 67.2122C67.3036 65.113 72.5494 57.8932 72.1497 49.8669C71.5358 37.5482 83.7751 28.6552 95.3018 33.0463C102.81 35.9063 111.299 33.1498 115.693 26.4211C122.436 16.0933 137.566 16.0933 144.309 26.4211C148.703 33.1498 157.191 35.9063 164.7 33.0463C176.227 28.6552 188.466 37.5482 187.852 49.8669C187.452 57.8932 192.698 65.113 200.455 67.2122C212.36 70.4358 217.035 84.8224 209.297 94.428Z" fill="url(#paint2_linear_229_2296)"/>
<path d="M130 179.378C129.02 179.378 127.193 179.094 125.945 177.183C120.507 168.855 111.323 163.887 101.378 163.887C97.8029 163.887 94.2905 164.534 90.9394 165.81C90.3544 166.032 89.767 166.145 89.1892 166.145C87.8916 166.145 86.6109 165.579 85.672 164.594C85.034 163.923 84.2901 162.762 84.3768 161.043C85.0581 147.367 75.9605 134.844 62.7438 131.266C60.541 130.669 59.7057 129.02 59.4023 128.088C59.099 127.157 58.8053 125.33 60.2377 123.553C68.8273 112.89 68.8273 97.4108 60.2377 86.746C58.8077 84.9693 59.1014 83.1421 59.4023 82.2104C59.7057 81.2788 60.541 79.6273 62.7438 79.0327C75.9605 75.4553 85.0605 62.9319 84.3768 49.2554C84.2901 47.5365 85.034 46.3762 85.672 45.7045C86.6109 44.7175 87.8916 44.1517 89.1892 44.1517C89.7646 44.1517 90.3544 44.2649 90.937 44.4864C94.2881 45.7623 97.7981 46.4099 101.375 46.4099C111.32 46.4099 120.505 41.4386 125.943 33.1138C127.19 31.2047 129.02 30.9182 129.997 30.9182C130.975 30.9182 132.804 31.2023 134.051 33.1138C139.49 41.441 148.674 46.4099 158.619 46.4099C162.194 46.4099 165.706 45.7623 169.057 44.4864C169.642 44.2649 170.23 44.1517 170.805 44.1517C172.103 44.1517 173.386 44.7175 174.322 45.7021C174.96 46.3714 175.702 47.5317 175.618 49.253C174.936 62.9295 184.034 75.4528 197.25 79.0302C199.453 79.6273 200.289 81.2764 200.592 82.208C200.895 83.1397 201.189 84.9669 199.757 86.7436C191.167 97.406 191.167 112.886 199.757 123.55C201.187 125.327 200.893 127.154 200.592 128.086C200.289 129.018 199.453 130.669 197.25 131.264C184.034 134.841 174.934 147.365 175.618 161.041C175.704 162.76 174.96 163.92 174.322 164.592C173.383 165.579 172.103 166.145 170.805 166.145C170.23 166.145 169.64 166.032 169.057 165.81C165.706 164.534 162.196 163.887 158.619 163.887C148.674 163.887 139.49 168.858 134.051 177.183C132.804 179.092 130.975 179.378 129.997 179.378H130Z" stroke="black" stroke-width="0.679519" stroke-miterlimit="10"/>
<path d="M117.053 140.398L89.7261 113.071L101.243 101.554L117.053 117.364L158.756 75.6602L170.273 87.1772L117.053 140.398Z" fill="white"/>
<path d="M49.3633 336.473C48.5898 336.473 47.8047 336.426 47.0078 336.332C44.6641 336.074 42.4375 335.301 40.3281 334.012C38.2188 332.699 36.3672 330.777 34.7734 328.246L43.4922 322.832C44.875 324.918 46.4805 326.043 48.3086 326.207L49.1523 326.242C49.8789 326.242 50.6406 326.137 51.4375 325.926C52.6094 325.645 53.6875 325.188 54.6719 324.555C56.875 323.172 58.1289 321.648 58.4336 319.984V319.879C58.4336 319.199 57.9883 318.566 57.0977 317.98C56.207 317.395 55.1523 316.879 53.9336 316.434C52.7383 315.988 51.7188 315.648 50.875 315.414C49.3047 315.016 48.0508 314.477 47.1133 313.797C46.1992 313.117 45.6953 311.863 45.6016 310.035V309.648C45.6016 307.727 46.3047 306.391 47.7109 305.641C49.1406 304.867 51.5547 304.457 54.9531 304.41C56.3594 304.27 57.3086 303.672 57.8008 302.617C58.1289 301.914 58.293 301.211 58.293 300.508C58.293 298.234 57.1094 296.898 54.7422 296.5C53.9922 296.406 53.2891 296.359 52.6328 296.359C50.8516 296.359 49.3398 296.664 48.0977 297.273C46.8555 297.883 45.9883 298.586 45.4961 299.383C45.3086 299.664 45.2148 299.816 45.2148 299.84L35.9336 295.48C35.9336 295.434 36.2734 294.883 36.9531 293.828C37.6328 292.75 38.7461 291.555 40.293 290.242C41.8398 288.906 43.9023 287.816 46.4805 286.973C48.2383 286.41 50.2773 286.129 52.5977 286.129C53.6523 286.129 54.7656 286.188 55.9375 286.305C58.9375 286.703 61.3867 287.676 63.2852 289.223C65.207 290.77 66.6016 292.645 67.4688 294.848C68.1719 296.652 68.5234 298.504 68.5234 300.402C68.5234 302.816 68.0195 305.078 67.0117 307.188C66.3555 308.5 65.5117 309.672 64.4805 310.703C65.9102 311.875 67.0234 313.328 67.8203 315.062C68.4062 316.352 68.6992 317.816 68.6992 319.457C68.6992 322.504 67.7383 325.34 65.8164 327.965C64.293 330.051 62.3828 331.82 60.0859 333.273C56.6406 335.406 53.0664 336.473 49.3633 336.473Z" fill="#757A2E"/>
<path d="M93.2461 301.434L91.0195 297.93H90.9609L90.8672 301.422L87.4688 301.129L87.8789 284.102L91.3008 283.855L91.2891 283.961C93.0859 284.016 94.5664 284.332 95.7305 284.91C96.9023 285.48 97.7852 286.215 98.3789 287.113C99.0586 288.152 99.3984 289.258 99.3984 290.43C99.3984 290.586 99.3906 290.742 99.375 290.898C99.2734 292.188 98.832 293.391 98.0508 294.508C97.2227 295.695 96.0898 296.609 94.6523 297.25L96.1406 299.605L93.2461 301.434ZM91.2188 294.508C92.1016 294.508 92.8867 294.332 93.5742 293.98C94.2695 293.621 94.8281 293.141 95.25 292.539C95.7344 291.852 95.9766 291.148 95.9766 290.43C95.9766 289.273 95.3242 288.418 94.0195 287.863C93.3086 287.566 92.3711 287.402 91.207 287.371L91.043 294.508H91.2188ZM102.516 287.512C102.055 287.512 101.66 287.352 101.332 287.031C101.012 286.703 100.852 286.309 100.852 285.848C100.852 285.395 101.012 285.008 101.332 284.688C101.66 284.359 102.055 284.195 102.516 284.195C102.969 284.195 103.355 284.359 103.676 284.688C104.004 285.008 104.168 285.395 104.168 285.848C104.168 286.309 104.004 286.703 103.676 287.031C103.355 287.352 102.969 287.512 102.516 287.512ZM103.805 300.438L100.406 300.426L100.699 288.496L104.109 288.238L103.805 300.438ZM110.508 301.07C108.711 301.07 107.285 300.352 106.23 298.914C105.512 297.93 105.152 296.543 105.152 294.754C105.207 293.09 105.551 291.758 106.184 290.758C106.816 289.75 107.59 289.035 108.504 288.613C109.207 288.293 109.93 288.133 110.672 288.133C111.336 288.133 111.957 288.254 112.535 288.496C113.293 288.816 113.898 289.305 114.352 289.961C114.789 290.586 115.008 291.344 115.008 292.234V292.328L111.598 292.234C111.59 291.945 111.457 291.746 111.199 291.637C111.043 291.574 110.875 291.543 110.695 291.543C109.984 291.543 109.422 291.934 109.008 292.715C108.742 293.223 108.594 293.918 108.562 294.801C108.562 295.816 108.723 296.547 109.043 296.992C109.371 297.43 109.848 297.648 110.473 297.648C110.645 297.648 110.82 297.629 111 297.59C111.43 297.496 111.73 297.348 111.902 297.145L114.598 299.254C113.902 300.09 112.938 300.648 111.703 300.93C111.305 301.023 110.906 301.07 110.508 301.07ZM121.84 301.07C120.043 301.07 118.621 300.352 117.574 298.914C117.191 298.375 116.902 297.719 116.707 296.945C116.285 296.938 116.055 296.93 116.016 296.922L116.156 293.512L116.59 293.535C116.785 292.23 117.176 291.176 117.762 290.371C118.355 289.566 119.047 288.98 119.836 288.613C120.539 288.293 121.262 288.133 122.004 288.133C122.668 288.133 123.289 288.254 123.867 288.496C124.625 288.816 125.227 289.297 125.672 289.938C126.125 290.578 126.352 291.344 126.352 292.234V292.328C126.297 293.273 125.961 294.047 125.344 294.648C124.734 295.242 123.969 295.703 123.047 296.031C122.125 296.352 121.184 296.574 120.223 296.699C120.27 296.801 120.324 296.891 120.387 296.969C120.605 297.273 120.875 297.473 121.195 297.566C121.391 297.621 121.594 297.648 121.805 297.648C121.977 297.648 122.152 297.629 122.332 297.59C122.77 297.496 123.074 297.348 123.246 297.145L125.93 299.254C125.242 300.09 124.281 300.648 123.047 300.93C122.648 301.023 122.246 301.07 121.84 301.07ZM120.07 293.43C121.914 293.266 122.871 292.867 122.941 292.234C122.926 291.945 122.789 291.746 122.531 291.637C122.375 291.574 122.207 291.543 122.027 291.543C121.777 291.543 121.539 291.598 121.312 291.707C120.758 291.941 120.344 292.516 120.07 293.43ZM133.934 301.082H130.863C130.801 300.863 130.734 300.648 130.664 300.438L130.5 300.355L130.57 300.121L127.359 289.691L130.734 289.129L132.398 294.367L134.062 289.129L137.438 289.691L134.227 300.121L134.297 300.355L134.133 300.438L133.934 301.082ZM140.484 287.512C140.023 287.512 139.629 287.352 139.301 287.031C138.98 286.703 138.82 286.309 138.82 285.848C138.82 285.395 138.98 285.008 139.301 284.688C139.629 284.359 140.023 284.195 140.484 284.195C140.938 284.195 141.324 284.359 141.645 284.688C141.973 285.008 142.137 285.395 142.137 285.848C142.137 286.309 141.973 286.703 141.645 287.031C141.324 287.352 140.938 287.512 140.484 287.512ZM141.773 300.438L138.375 300.426L138.668 288.496L142.078 288.238L141.773 300.438ZM151.148 287.512C150.688 287.512 150.293 287.352 149.965 287.031C149.645 286.703 149.484 286.309 149.484 285.848C149.484 285.395 149.645 285.008 149.965 284.688C150.293 284.359 150.688 284.195 151.148 284.195C151.602 284.195 151.988 284.359 152.309 284.688C152.637 285.008 152.801 285.395 152.801 285.848C152.801 286.309 152.637 286.703 152.309 287.031C151.988 287.352 151.602 287.512 151.148 287.512ZM152.438 300.438L149.039 300.426L149.332 288.496L152.742 288.238L152.438 300.438ZM157.16 301.422L153.75 301.398L154.207 284.148L157.629 283.902L157.16 301.422ZM167.93 301.375L164.531 301.352L164.988 284.102L168.398 283.855L168.246 289.832C169.809 289.832 171.184 290.098 172.371 290.629C173.566 291.16 174.512 291.844 175.207 292.68C176.059 293.711 176.484 294.828 176.484 296.031C176.484 297.023 176.137 297.957 175.441 298.832C174.832 299.574 173.91 300.18 172.676 300.648C171.441 301.117 169.859 301.355 167.93 301.363V301.375ZM168.023 297.953C169.344 297.953 170.395 297.836 171.176 297.602C171.957 297.359 172.504 297.043 172.816 296.652C172.98 296.441 173.062 296.223 173.062 295.996C173.062 295.629 172.902 295.254 172.582 294.871C172.168 294.379 171.586 293.98 170.836 293.676C170.117 293.387 169.273 293.242 168.305 293.242H168.152L168.023 297.953ZM187.23 301.41L185.004 300.273C184.191 300.625 183.441 300.801 182.754 300.801C181.895 300.801 181.027 300.566 180.152 300.098C179.457 299.73 178.871 299.246 178.395 298.645C177.855 297.965 177.586 297.195 177.586 296.336C177.586 295.508 177.906 294.719 178.547 293.969C179.125 293.344 179.789 292.945 180.539 292.773C180.93 292.688 181.332 292.645 181.746 292.645C182.23 292.645 182.781 292.715 183.398 292.855L183.375 292.797C183.07 292.359 182.555 292.141 181.828 292.141C181.656 292.141 181.477 292.156 181.289 292.188C180.727 292.273 180.223 292.461 179.777 292.75L177.914 289.891C178.75 289.344 179.699 288.984 180.762 288.812C181.121 288.75 181.477 288.719 181.828 288.719C183.75 288.719 185.219 289.453 186.234 290.922C186.625 291.516 186.891 292.238 187.031 293.09C187.25 294.434 187.426 295.863 187.559 297.379C187.605 297.918 187.629 298.434 187.629 298.926C187.629 299.191 187.613 299.566 187.582 300.051C187.551 300.535 187.434 300.988 187.23 301.41ZM182.754 297.402L182.871 297.391C183.316 297.289 183.723 297.145 184.09 296.957L184.066 296.676C183.496 296.426 182.91 296.242 182.309 296.125C182.082 296.078 181.883 296.055 181.711 296.055C181.438 296.055 181.234 296.113 181.102 296.23C181.031 296.316 180.996 296.371 180.996 296.395C180.996 296.418 181.027 296.469 181.09 296.547C181.254 296.75 181.48 296.93 181.77 297.086C182.16 297.297 182.488 297.402 182.754 297.402ZM200.191 301.422L196.781 301.398L196.793 300.93C195.059 300.859 193.625 300.598 192.492 300.145C191.359 299.684 190.508 299.102 189.938 298.398C189.234 297.523 188.883 296.586 188.883 295.586L188.895 295.223C188.988 294.152 189.414 293.16 190.172 292.246C190.859 291.418 191.793 290.738 192.973 290.207C194.16 289.676 195.535 289.406 197.098 289.398L197.238 284.148L200.66 283.902L200.191 301.422ZM196.887 297.531L197.016 292.82C196.031 292.828 195.18 292.984 194.461 293.289C193.742 293.586 193.188 293.969 192.797 294.438C192.469 294.836 192.305 295.211 192.305 295.562C192.305 295.789 192.391 296.008 192.562 296.219C192.852 296.586 193.352 296.887 194.062 297.121C194.773 297.355 195.715 297.492 196.887 297.531ZM207.574 307.012C206.965 307.012 206.355 306.855 205.746 306.543C205.145 306.23 204.582 305.723 204.059 305.02C203.543 304.324 203.094 303.41 202.711 302.277L205.945 301.188C206.414 302.531 206.883 303.312 207.352 303.531C207.414 303.562 207.48 303.578 207.551 303.578C207.605 303.578 207.664 303.566 207.727 303.543C208.016 303.441 208.316 303.211 208.629 302.852C209.387 301.969 209.938 300.758 210.281 299.219C209.414 299.609 208.648 299.805 207.984 299.805C206.828 299.805 205.672 299.402 204.516 298.598C203.922 298.176 203.402 297.676 202.957 297.098V297.086C202.488 296.469 202.152 295.785 201.949 295.035C201.848 294.629 201.797 294.219 201.797 293.805C201.797 293.516 201.84 293.121 201.926 292.621C202.012 292.121 202.309 291.512 202.816 290.793C203.488 289.879 204.281 289.305 205.195 289.07C205.656 288.953 206.133 288.895 206.625 288.895C207.094 288.895 207.574 288.949 208.066 289.059C208.871 289.238 209.645 289.5 210.387 289.844C210.363 289.328 210.336 288.828 210.305 288.344L213.715 288.109C213.855 290.195 213.926 292.789 213.926 295.891V296.793C213.926 298.543 213.668 300.145 213.152 301.598C212.645 303.012 211.992 304.176 211.195 305.09C210.484 305.91 209.695 306.477 208.828 306.789C208.406 306.938 207.988 307.012 207.574 307.012ZM208.008 296.324C208.195 296.324 208.508 296.27 208.945 296.16C209.383 296.051 209.906 295.734 210.516 295.211L210.504 293.77C210.129 293.535 209.613 293.266 208.957 292.961C208.309 292.648 207.664 292.441 207.023 292.34C206.891 292.316 206.766 292.305 206.648 292.305C206.203 292.305 205.852 292.461 205.594 292.773C205.344 293.148 205.219 293.504 205.219 293.84C205.219 293.965 205.234 294.086 205.266 294.203C205.344 294.492 205.484 294.77 205.688 295.035C205.922 295.34 206.191 295.598 206.496 295.809C207.004 296.152 207.508 296.324 208.008 296.324ZM221.379 301.07C219.582 301.07 218.16 300.352 217.113 298.914C216.73 298.375 216.441 297.719 216.246 296.945C215.824 296.938 215.594 296.93 215.555 296.922L215.695 293.512L216.129 293.535C216.324 292.23 216.715 291.176 217.301 290.371C217.895 289.566 218.586 288.98 219.375 288.613C220.078 288.293 220.801 288.133 221.543 288.133C222.207 288.133 222.828 288.254 223.406 288.496C224.164 288.816 224.766 289.297 225.211 289.938C225.664 290.578 225.891 291.344 225.891 292.234V292.328C225.836 293.273 225.5 294.047 224.883 294.648C224.273 295.242 223.508 295.703 222.586 296.031C221.664 296.352 220.723 296.574 219.762 296.699C219.809 296.801 219.863 296.891 219.926 296.969C220.145 297.273 220.414 297.473 220.734 297.566C220.93 297.621 221.133 297.648 221.344 297.648C221.516 297.648 221.691 297.629 221.871 297.59C222.309 297.496 222.613 297.348 222.785 297.145L225.469 299.254C224.781 300.09 223.82 300.648 222.586 300.93C222.188 301.023 221.785 301.07 221.379 301.07ZM219.609 293.43C221.453 293.266 222.41 292.867 222.48 292.234C222.465 291.945 222.328 291.746 222.07 291.637C221.914 291.574 221.746 291.543 221.566 291.543C221.316 291.543 221.078 291.598 220.852 291.707C220.297 291.941 219.883 292.516 219.609 293.43ZM98.8477 337.422L95.4375 337.398L95.4492 336.93C93.7148 336.859 92.2812 336.598 91.1484 336.145C90.0156 335.684 89.1641 335.102 88.5938 334.398C87.8906 333.523 87.5391 332.586 87.5391 331.586L87.5508 331.223C87.6445 330.152 88.0703 329.16 88.8281 328.246C89.5156 327.418 90.4492 326.738 91.6289 326.207C92.8164 325.676 94.1914 325.406 95.7539 325.398L95.8945 320.148L99.3164 319.902L98.8477 337.422ZM95.543 333.531L95.6719 328.82C94.6875 328.828 93.8359 328.984 93.1172 329.289C92.3984 329.586 91.8438 329.969 91.4531 330.438C91.125 330.836 90.9609 331.211 90.9609 331.562C90.9609 331.789 91.0469 332.008 91.2188 332.219C91.5078 332.586 92.0078 332.887 92.7188 333.121C93.4297 333.355 94.3711 333.492 95.543 333.531ZM102.375 323.512C101.914 323.512 101.52 323.352 101.191 323.031C100.871 322.703 100.711 322.309 100.711 321.848C100.711 321.395 100.871 321.008 101.191 320.688C101.52 320.359 101.914 320.195 102.375 320.195C102.828 320.195 103.215 320.359 103.535 320.688C103.863 321.008 104.027 321.395 104.027 321.848C104.027 322.309 103.863 322.703 103.535 323.031C103.215 323.352 102.828 323.512 102.375 323.512ZM103.664 336.438L100.266 336.426L100.559 324.496L103.969 324.238L103.664 336.438ZM117.504 337.082H114.434C114.371 336.863 114.305 336.648 114.234 336.438L114.07 336.355L114.141 336.121L110.93 325.691L114.305 325.129L115.969 330.367L117.633 325.129L121.008 325.691L117.797 336.121L117.867 336.355L117.703 336.438L117.504 337.082ZM126.926 337.07C125.129 337.07 123.707 336.352 122.66 334.914C122.277 334.375 121.988 333.719 121.793 332.945C121.371 332.938 121.141 332.93 121.102 332.922L121.242 329.512L121.676 329.535C121.871 328.23 122.262 327.176 122.848 326.371C123.441 325.566 124.133 324.98 124.922 324.613C125.625 324.293 126.348 324.133 127.09 324.133C127.754 324.133 128.375 324.254 128.953 324.496C129.711 324.816 130.312 325.297 130.758 325.938C131.211 326.578 131.438 327.344 131.438 328.234V328.328C131.383 329.273 131.047 330.047 130.43 330.648C129.82 331.242 129.055 331.703 128.133 332.031C127.211 332.352 126.27 332.574 125.309 332.699C125.355 332.801 125.41 332.891 125.473 332.969C125.691 333.273 125.961 333.473 126.281 333.566C126.477 333.621 126.68 333.648 126.891 333.648C127.062 333.648 127.238 333.629 127.418 333.59C127.855 333.496 128.16 333.348 128.332 333.145L131.016 335.254C130.328 336.09 129.367 336.648 128.133 336.93C127.734 337.023 127.332 337.07 126.926 337.07ZM125.156 329.43C127 329.266 127.957 328.867 128.027 328.234C128.012 327.945 127.875 327.746 127.617 327.637C127.461 327.574 127.293 327.543 127.113 327.543C126.863 327.543 126.625 327.598 126.398 327.707C125.844 327.941 125.43 328.516 125.156 329.43ZM135.855 337.305L132.445 337.105C132.562 335.402 132.621 333.914 132.621 332.641C132.621 332.117 132.605 331.648 132.574 331.234C132.559 331.07 132.551 330.906 132.551 330.742C132.551 329.891 132.734 329.039 133.102 328.188C133.523 327.219 134.203 326.434 135.141 325.832C135.836 325.395 136.656 325.176 137.602 325.176C137.945 325.176 138.305 325.203 138.68 325.258C139.891 325.453 141.27 326.133 142.816 327.297L140.73 330.004C139.652 329.191 138.762 328.73 138.059 328.621C137.895 328.59 137.746 328.574 137.613 328.574C136.988 328.574 136.523 328.91 136.219 329.582C136.055 329.965 135.973 330.344 135.973 330.719L135.984 330.941C136.016 331.387 136.031 331.918 136.031 332.535C136.031 333.91 135.973 335.5 135.855 337.305ZM145.875 323.512C145.414 323.512 145.02 323.352 144.691 323.031C144.371 322.703 144.211 322.309 144.211 321.848C144.211 321.395 144.371 321.008 144.691 320.688C145.02 320.359 145.414 320.195 145.875 320.195C146.328 320.195 146.715 320.359 147.035 320.688C147.363 321.008 147.527 321.395 147.527 321.848C147.527 322.309 147.363 322.703 147.035 323.031C146.715 323.352 146.328 323.512 145.875 323.512ZM147.164 336.438L143.766 336.426L144.059 324.496L147.469 324.238L147.164 336.438ZM150.867 336.695C150.734 335.156 150.637 333.547 150.574 331.867C150.551 331.359 150.539 330.852 150.539 330.344L148.477 330.297L148.5 326.887L150.527 326.945C150.59 325.133 150.859 323.691 151.336 322.621C151.82 321.551 152.414 320.797 153.117 320.359C153.82 319.914 154.535 319.691 155.262 319.691C155.582 319.691 155.902 319.734 156.223 319.82C157.16 320.062 157.977 320.547 158.672 321.273C159.336 321.977 159.793 322.812 160.043 323.781C160.137 324.148 160.184 324.52 160.184 324.895C160.184 325.512 160.059 326.133 159.809 326.758L156.668 325.434C156.73 325.262 156.762 325.086 156.762 324.906C156.762 324.766 156.727 324.582 156.656 324.355C156.586 324.121 156.43 323.879 156.188 323.629C155.945 323.371 155.688 323.207 155.414 323.137C155.359 323.121 155.309 323.113 155.262 323.113C155.168 323.113 155.082 323.137 155.004 323.184C154.723 323.363 154.484 323.762 154.289 324.379C154.094 324.988 153.977 325.871 153.938 327.027L157.734 327.133L157.992 330.543L153.949 330.438L153.961 330.812C153.961 331.125 153.969 331.438 153.984 331.75C154.039 333.219 154.137 334.77 154.277 336.402L150.867 336.695ZM163.711 323.512C163.25 323.512 162.855 323.352 162.527 323.031C162.207 322.703 162.047 322.309 162.047 321.848C162.047 321.395 162.207 321.008 162.527 320.688C162.855 320.359 163.25 320.195 163.711 320.195C164.164 320.195 164.551 320.359 164.871 320.688C165.199 321.008 165.363 321.395 165.363 321.848C165.363 322.309 165.199 322.703 164.871 323.031C164.551 323.352 164.164 323.512 163.711 323.512ZM165 336.438L161.602 336.426L161.895 324.496L165.305 324.238L165 336.438ZM171.703 337.07C169.906 337.07 168.48 336.352 167.426 334.914C166.707 333.93 166.348 332.543 166.348 330.754C166.402 329.09 166.746 327.758 167.379 326.758C168.012 325.75 168.785 325.035 169.699 324.613C170.402 324.293 171.125 324.133 171.867 324.133C172.531 324.133 173.152 324.254 173.73 324.496C174.488 324.816 175.094 325.305 175.547 325.961C175.984 326.586 176.203 327.344 176.203 328.234V328.328L172.793 328.234C172.785 327.945 172.652 327.746 172.395 327.637C172.238 327.574 172.07 327.543 171.891 327.543C171.18 327.543 170.617 327.934 170.203 328.715C169.938 329.223 169.789 329.918 169.758 330.801C169.758 331.816 169.918 332.547 170.238 332.992C170.566 333.43 171.043 333.648 171.668 333.648C171.84 333.648 172.016 333.629 172.195 333.59C172.625 333.496 172.926 333.348 173.098 333.145L175.793 335.254C175.098 336.09 174.133 336.648 172.898 336.93C172.5 337.023 172.102 337.07 171.703 337.07ZM186.926 337.41L184.699 336.273C183.887 336.625 183.137 336.801 182.449 336.801C181.59 336.801 180.723 336.566 179.848 336.098C179.152 335.73 178.566 335.246 178.09 334.645C177.551 333.965 177.281 333.195 177.281 332.336C177.281 331.508 177.602 330.719 178.242 329.969C178.82 329.344 179.484 328.945 180.234 328.773C180.625 328.688 181.027 328.645 181.441 328.645C181.926 328.645 182.477 328.715 183.094 328.855L183.07 328.797C182.766 328.359 182.25 328.141 181.523 328.141C181.352 328.141 181.172 328.156 180.984 328.188C180.422 328.273 179.918 328.461 179.473 328.75L177.609 325.891C178.445 325.344 179.395 324.984 180.457 324.812C180.816 324.75 181.172 324.719 181.523 324.719C183.445 324.719 184.914 325.453 185.93 326.922C186.32 327.516 186.586 328.238 186.727 329.09C186.945 330.434 187.121 331.863 187.254 333.379C187.301 333.918 187.324 334.434 187.324 334.926C187.324 335.191 187.309 335.566 187.277 336.051C187.246 336.535 187.129 336.988 186.926 337.41ZM182.449 333.402L182.566 333.391C183.012 333.289 183.418 333.145 183.785 332.957L183.762 332.676C183.191 332.426 182.605 332.242 182.004 332.125C181.777 332.078 181.578 332.055 181.406 332.055C181.133 332.055 180.93 332.113 180.797 332.23C180.727 332.316 180.691 332.371 180.691 332.395C180.691 332.418 180.723 332.469 180.785 332.547C180.949 332.75 181.176 332.93 181.465 333.086C181.855 333.297 182.184 333.402 182.449 333.402Z" fill="#757A2E"/>
<defs>
<linearGradient id="paint0_linear_229_2296" x1="110.156" y1="152.023" x2="81.5146" y2="231.983" gradientUnits="userSpaceOnUse">
<stop stop-color="#EF8450"/>
<stop offset="1" stop-color="#F2D866"/>
</linearGradient>
<linearGradient id="paint1_linear_229_2296" x1="149.644" y1="151.948" x2="178.288" y2="230.955" gradientUnits="userSpaceOnUse">
<stop stop-color="#EF8450"/>
<stop offset="1" stop-color="#F2D866"/>
</linearGradient>
<linearGradient id="paint2_linear_229_2296" x1="183.995" y1="172.599" x2="76.004" y2="37.6998" gradientUnits="userSpaceOnUse">
<stop stop-color="#7B8030"/>
<stop offset="0.23" stop-color="#7E8231"/>
<stop offset="0.4" stop-color="#888935"/>
<stop offset="0.57" stop-color="#98963D"/>
<stop offset="0.72" stop-color="#B0A748"/>
<stop offset="0.87" stop-color="#CEBD55"/>
<stop offset="1" stop-color="#F2D866"/>
</linearGradient>
</defs>
</svg>
