<svg width="499" height="455" viewBox="0 0 499 455" fill="none" xmlns="http://www.w3.org/2000/svg">
<g filter="url(#filter0_d_229_2380)">
<path d="M100.331 337.773C92.3757 385.395 128.572 408.428 148.481 409.123C173.029 410.011 216.073 392.443 214.104 347.859C225.611 387.236 267.048 405.904 297.367 394.056C320.255 385.122 335.835 359.122 333.79 330.37C358.435 362.186 402.754 363.748 423.841 343.069C439.665 327.385 439.294 300.219 424.815 276.175C450.366 280.803 475.026 271.356 481.837 255.886C491.05 236.125 473.959 193.387 421.461 207.937C432.974 170.7 409.638 135.768 374.889 133.087C366.587 132.306 358.215 133.301 350.335 136.004C342.454 138.706 335.247 143.055 329.196 148.759C323.144 154.464 318.388 161.393 315.245 169.081C312.102 176.769 310.645 185.039 310.972 193.339C308.091 153.971 275.477 128.227 248.521 130.715C218.854 133.364 189.079 171.207 200.878 213.867C190.206 171.233 148.085 152.884 123.551 162.912C100.948 172.311 78.862 209.321 95.3779 245.426C42.7714 243.482 17.1143 273.553 14.6217 292.338C11.7889 314.382 41.3751 356.789 101.023 337.876" fill="white"/>
</g>
<path d="M254.846 277.038C254.716 277.051 254.584 277.034 254.461 276.988C254.338 276.943 254.228 276.87 254.138 276.774C254.048 276.679 253.981 276.564 253.942 276.438C253.903 276.313 253.894 276.18 253.915 276.051C253.832 275.905 253.794 275.738 253.805 275.571C253.816 275.403 253.876 275.243 253.977 275.109C254.078 274.976 254.217 274.875 254.375 274.82C254.533 274.765 254.703 274.758 254.866 274.799C258.802 274.894 262.685 275.74 266.307 277.29C261.916 270.927 259.725 263.298 260.068 255.573L262.791 255.584C262.697 262.801 264.728 269.887 268.629 275.957C269.202 276.746 270.018 277.324 270.95 277.601C272.572 277.728 274.202 277.641 275.8 277.341C280.614 276.709 285.508 277.116 290.154 278.535C290.375 278.664 290.543 278.867 290.629 279.107C290.716 279.348 290.715 279.613 290.627 279.853C290.526 279.961 290.401 280.044 290.261 280.094C290.121 280.145 289.972 280.161 289.825 280.142C289.756 280.205 289.676 280.254 289.588 280.285C289.5 280.317 289.407 280.331 289.314 280.326C284.412 278.967 279.279 278.675 274.258 279.467C280.001 280.604 285.505 282.732 290.524 285.756C290.635 285.808 290.735 285.882 290.817 285.973C290.9 286.063 290.963 286.17 291.005 286.285C291.046 286.401 291.065 286.523 291.059 286.646C291.053 286.769 291.023 286.889 290.971 287C290.81 287.141 290.602 287.216 290.388 287.21C290.101 287.247 289.81 287.174 289.573 287.008C284.651 284.153 279.3 282.117 273.73 280.979C278.23 284.003 282.303 287.624 285.836 291.741C286.017 291.939 286.111 292.201 286.099 292.469C286.087 292.736 285.97 292.988 285.772 293.168L285.335 293.326C285.144 293.363 284.948 293.349 284.765 293.284C284.583 293.219 284.42 293.106 284.296 292.957C280.09 288.12 275.108 284.021 269.556 280.829C264.994 278.298 259.95 276.764 254.756 276.327" fill="#DC422E"/>
<path d="M224.397 281.722C224.137 281.691 223.896 281.567 223.72 281.372C223.544 281.177 223.444 280.925 223.439 280.662C223.47 280.401 223.594 280.161 223.788 279.985C223.982 279.809 224.233 279.709 224.495 279.704C228.425 279.851 232.298 280.694 235.936 282.194C231.55 275.864 229.343 268.274 229.651 260.578L232.348 260.515C232.369 267.718 234.417 274.771 238.259 280.862C238.818 281.664 239.639 282.245 240.58 282.506C242.207 282.662 243.847 282.599 245.456 282.319C250.234 281.7 255.09 282.091 259.71 283.466C259.833 283.515 259.944 283.59 260.036 283.685C260.128 283.78 260.199 283.893 260.243 284.018C260.288 284.142 260.306 284.275 260.296 284.407C260.286 284.539 260.247 284.667 260.184 284.783C260.076 284.883 259.95 284.961 259.812 285.01C259.674 285.06 259.527 285.08 259.381 285.072L258.943 285.229C254.035 283.914 248.91 283.623 243.887 284.372C249.615 285.497 255.098 287.636 260.081 290.687C260.314 290.803 260.493 291.005 260.581 291.25C260.67 291.496 260.66 291.765 260.554 292.004C260.364 292.148 260.135 292.23 259.897 292.24C259.717 292.401 259.482 292.486 259.241 292.476C254.36 289.549 249.018 287.477 243.444 286.349C247.924 289.438 252 293.078 255.577 297.184C255.664 297.282 255.729 297.398 255.768 297.524C255.807 297.649 255.819 297.781 255.803 297.911C255.788 298.042 255.746 298.168 255.678 298.28C255.611 298.393 255.521 298.49 255.414 298.565L255.195 298.644C255.025 298.695 254.842 298.692 254.674 298.634C254.505 298.576 254.359 298.466 254.255 298.321C250.035 293.469 245.046 289.347 239.489 286.12C234.894 283.643 229.84 282.144 224.642 281.717" fill="#DC422E"/>
<path d="M303.127 22.9962C303.6 22.2476 309.428 13.7038 315.751 19.6072C321.216 24.4976 314.525 33.8483 304.885 31.7835C302.334 31.0048 299.619 30.9451 297.039 31.6118C294.459 32.2786 292.113 33.6456 290.258 35.5626C290.258 35.5626 276.273 42.4999 275.241 30.2289C274.205 21.8431 285.981 20.9079 288.081 25.6053C288.081 25.6053 284.493 13.0978 295.486 12.279C305.207 11.5879 303.206 23.2159 303.206 23.2159" fill="#DC422E"/>
<path d="M260.86 256.858C264.557 256.601 271.875 250.826 274.039 237.817L242.837 245.913C242.837 245.913 251.676 257.438 260.86 256.858Z" fill="#C86723"/>
<path d="M242.082 248.168C163.812 262.389 133.949 191.669 133.949 191.669C133.949 191.669 119.443 186.151 116.679 177.313C116.242 176.265 116.066 175.126 116.166 173.995C116.267 172.864 116.64 171.773 117.254 170.82C117.869 169.867 118.706 169.078 119.693 168.522C120.68 167.965 121.788 167.659 122.921 167.629C119.412 166.873 116.143 165.256 113.407 162.925C110.671 160.593 108.554 157.619 107.244 154.268C104.088 143.423 115.87 144.799 115.87 144.799C107.843 139.427 103.161 129.38 108.43 124.094C113.699 118.809 144.623 135.85 182.801 134.332C220.98 132.813 231.238 108.626 231.238 108.626L327.086 149.967C324.67 218.676 281.517 240.743 241.347 248.185" fill="#D77621"/>
<path d="M167.306 154.951C167.306 154.951 155.773 156.79 161.005 164.243C163.032 167.12 165.735 169.451 168.876 171.03C172.016 172.61 175.496 173.388 179.006 173.295C177.934 173.628 176.97 174.243 176.216 175.077C175.462 175.91 174.945 176.931 174.718 178.034C174.492 179.136 174.564 180.28 174.929 181.345C175.293 182.411 175.935 183.359 176.789 184.092C178.883 186.104 181.496 187.488 184.333 188.088C187.17 188.687 190.116 188.478 192.839 187.484C192.305 188.134 191.907 188.884 191.668 189.691C191.429 190.498 191.354 191.345 191.447 192.182C191.541 193.019 191.8 193.829 192.211 194.564C192.622 195.299 193.176 195.944 193.84 196.461C199.512 200.781 215.173 203.321 235.786 193.502C256.63 182.885 272.608 164.65 280.426 142.557L231.974 108.609C224.259 119.329 212.868 126.815 199.98 129.633C177.858 134.79 153.375 128.566 154.027 139.322C154.735 142.826 156.308 146.098 158.602 148.837C160.896 151.577 163.839 153.697 167.16 155.003" fill="#96501F"/>
<path d="M230.708 261.684C227.095 262.406 217.796 259.228 212.259 247.257L243.757 246.408C243.757 246.408 239.79 259.901 230.708 261.684Z" fill="#D77621"/>
<path d="M280.426 142.557C280.426 142.557 267.525 180.255 240.622 186.555C239.299 187.08 237.863 187.255 236.452 187.062C235.041 186.87 233.703 186.317 232.566 185.457C231.429 184.596 230.532 183.457 229.961 182.149C229.39 180.842 229.164 179.409 229.304 177.989C223.729 179.217 217.924 178.908 212.505 177.097C211.642 176.627 210.894 175.972 210.312 175.178C209.73 174.385 209.331 173.473 209.141 172.507C208.951 171.542 208.977 170.546 209.215 169.592C209.453 168.638 209.899 167.749 210.52 166.987C210.52 166.987 196.235 169.652 191.292 163.004C190.637 162.156 190.18 161.171 189.955 160.122C189.73 159.074 189.743 157.988 189.994 156.945C190.244 155.903 190.725 154.93 191.402 154.1C192.078 153.27 192.932 152.603 193.9 152.149C191.44 151.504 189.141 150.349 187.151 148.761C185.161 147.172 183.524 145.184 182.346 142.924C178.353 132.959 195.461 132.417 208.014 128.144C218.123 123.075 226.934 115.747 233.768 106.723L280.353 142.584" fill="#BE6227"/>
<path d="M300.211 171.708L300.649 171.55C302.208 169.103 303.478 166.483 304.434 163.742C304.499 163.582 304.502 163.405 304.444 163.243C304.386 163.081 304.27 162.946 304.119 162.864C304.042 162.821 303.956 162.795 303.869 162.788C303.781 162.781 303.693 162.793 303.61 162.823C303.527 162.853 303.452 162.9 303.389 162.961C303.325 163.023 303.276 163.097 303.244 163.179C302.407 165.807 301.23 168.315 299.744 170.636C299.695 170.797 299.699 170.97 299.756 171.128C299.813 171.287 299.919 171.422 300.06 171.514L300.497 171.357" fill="#A1511E"/>
<path d="M277.76 205.987C279.7 203.846 281.365 201.469 282.716 198.914C282.78 198.754 282.784 198.576 282.725 198.414C282.667 198.252 282.552 198.118 282.401 198.036C282.242 197.971 282.064 197.967 281.903 198.025C281.741 198.084 281.607 198.2 281.525 198.351C280.289 200.841 278.7 203.138 276.809 205.173C276.745 205.318 276.739 205.482 276.793 205.632C276.847 205.782 276.956 205.906 277.098 205.977C277.098 205.977 277.229 206.343 277.74 206.159" fill="#A1511E"/>
<path d="M237.719 205.532C240.462 204.61 243.083 203.361 245.527 201.811C245.672 201.702 245.769 201.54 245.796 201.36C245.824 201.181 245.781 200.997 245.676 200.849C245.573 200.719 245.427 200.629 245.264 200.597C245.102 200.564 244.933 200.591 244.789 200.672C242.45 202.145 239.953 203.349 237.345 204.261C237.259 204.281 237.178 204.319 237.107 204.372C237.037 204.426 236.978 204.493 236.936 204.571C236.894 204.649 236.868 204.734 236.862 204.823C236.855 204.911 236.868 205.001 236.899 205.084C236.916 205.164 236.949 205.24 236.997 205.308C237.044 205.375 237.104 205.433 237.173 205.477C237.243 205.521 237.321 205.552 237.402 205.565C237.483 205.579 237.566 205.577 237.646 205.558" fill="#A1511E"/>
<path d="M248.134 219.382C250.877 218.449 253.491 217.175 255.916 215.588C256.046 215.485 256.135 215.339 256.167 215.176C256.199 215.013 256.172 214.844 256.091 214.699C256.053 214.617 255.997 214.545 255.928 214.486C255.859 214.428 255.778 214.386 255.692 214.362C255.605 214.338 255.514 214.334 255.425 214.349C255.336 214.364 255.252 214.398 255.177 214.449C252.882 216.002 250.387 217.234 247.76 218.112C247.76 218.112 247.177 218.322 247.288 218.861C247.346 219.033 247.462 219.18 247.617 219.275C247.771 219.37 247.955 219.408 248.134 219.382Z" fill="#A1511E"/>
<path d="M219.201 212.696L220.15 212.355C220.312 212.298 220.448 212.181 220.53 212.029C220.612 211.878 220.636 211.701 220.596 211.533C220.591 211.446 220.566 211.362 220.522 211.287C220.478 211.212 220.417 211.149 220.344 211.103C220.271 211.056 220.188 211.028 220.102 211.021C220.015 211.013 219.929 211.026 219.848 211.058C217.264 211.654 214.627 211.995 211.975 212.076C211.816 212.011 211.638 212.008 211.477 212.066C211.315 212.124 211.181 212.24 211.1 212.391C211.119 212.572 211.196 212.741 211.318 212.875C211.44 213.01 211.602 213.102 211.78 213.138C214.43 213.088 217.064 212.721 219.627 212.047" fill="#A1511E"/>
<path d="M204.23 223.54C204.472 223.55 204.707 223.465 204.887 223.304C204.867 223.123 204.791 222.954 204.669 222.82C204.546 222.686 204.384 222.593 204.207 222.557C201.444 222.514 198.697 222.114 196.035 221.369C195.957 221.326 195.872 221.3 195.784 221.293C195.697 221.286 195.608 221.298 195.526 221.328C195.443 221.358 195.367 221.405 195.304 221.466C195.241 221.528 195.192 221.602 195.159 221.684C195.117 221.761 195.091 221.847 195.085 221.935C195.078 222.023 195.09 222.111 195.12 222.195C195.149 222.278 195.196 222.353 195.258 222.416C195.319 222.48 195.393 222.529 195.475 222.562C198.303 223.362 201.225 223.783 204.163 223.813" fill="#A1511E"/>
<path d="M195.78 236.252C195.887 236.264 195.995 236.252 196.097 236.215C196.198 236.179 196.289 236.119 196.364 236.041C196.428 235.882 196.431 235.704 196.373 235.542C196.315 235.38 196.199 235.245 196.048 235.163C193.32 234.704 190.658 233.915 188.118 232.813C188.041 232.771 187.956 232.745 187.868 232.738C187.78 232.731 187.692 232.743 187.609 232.773C187.526 232.803 187.451 232.85 187.388 232.911C187.324 232.972 187.275 233.047 187.243 233.129C187.2 233.206 187.175 233.292 187.168 233.379C187.161 233.467 187.173 233.555 187.203 233.638C187.232 233.721 187.28 233.797 187.341 233.861C187.402 233.924 187.476 233.974 187.558 234.007C190.188 235.176 192.952 236.012 195.786 236.498" fill="#A1511E"/>
<path d="M173.853 209.855C173.853 209.855 173.853 209.855 174.218 209.724C174.282 209.564 174.286 209.387 174.228 209.225C174.169 209.063 174.054 208.928 173.903 208.846C171.725 207.026 169.765 204.959 168.064 202.685C168.019 202.613 167.959 202.551 167.889 202.503C167.82 202.455 167.741 202.421 167.658 202.405C167.575 202.388 167.489 202.389 167.406 202.407C167.323 202.425 167.245 202.46 167.176 202.51C167.047 202.613 166.958 202.759 166.926 202.922C166.894 203.084 166.921 203.254 167.002 203.399C168.724 205.67 170.708 207.729 172.914 209.533C173.007 209.543 173.102 209.532 173.19 209.5C173.279 209.468 173.359 209.416 173.424 209.349" fill="#A1511E"/>
<path d="M164.04 189.426C164.09 189.266 164.086 189.094 164.029 188.935C163.972 188.777 163.865 188.641 163.725 188.549C161.566 186.722 159.63 184.645 157.959 182.362C157.848 182.213 157.688 182.109 157.507 182.068C157.326 182.027 157.136 182.052 156.972 182.139C156.828 182.249 156.731 182.41 156.704 182.59C156.676 182.77 156.719 182.953 156.824 183.101C158.573 185.35 160.555 187.406 162.736 189.236L163.247 189.052" fill="#A1511E"/>
<path d="M142.705 176.369L143.143 176.211C143.186 176.141 143.213 176.063 143.222 175.981C143.231 175.899 143.221 175.816 143.193 175.739C143.165 175.662 143.12 175.591 143.061 175.533C143.002 175.476 142.931 175.432 142.853 175.406C140.691 173.584 138.755 171.506 137.087 169.22C136.984 169.089 136.838 169.001 136.676 168.968C136.513 168.936 136.345 168.963 136.2 169.044C136.119 169.092 136.049 169.157 135.993 169.233C135.938 169.31 135.898 169.397 135.878 169.49C135.857 169.582 135.856 169.679 135.873 169.772C135.89 169.865 135.926 169.954 135.979 170.032C137.771 172.259 139.775 174.304 141.964 176.14C141.964 176.14 141.964 176.14 142.401 175.983" fill="#A1511E"/>
<path d="M154.309 202.929C154.373 202.769 154.377 202.591 154.318 202.429C154.26 202.267 154.145 202.133 153.994 202.051C151.834 200.225 149.899 198.148 148.228 195.864C148.134 195.715 147.988 195.607 147.819 195.561C147.65 195.514 147.469 195.533 147.314 195.614C147.233 195.663 147.163 195.728 147.107 195.805C147.052 195.882 147.012 195.969 146.992 196.061C146.971 196.154 146.969 196.249 146.987 196.343C147.004 196.436 147.04 196.524 147.092 196.603C148.83 198.878 150.84 200.929 153.077 202.711C153.077 202.711 153.077 202.711 153.515 202.553" fill="#A1511E"/>
<path d="M144.589 156.851L144.954 156.719C144.996 156.642 145.022 156.556 145.029 156.468C145.036 156.381 145.024 156.292 144.994 156.209C144.964 156.126 144.917 156.05 144.855 155.986C144.794 155.923 144.72 155.874 144.639 155.841C142.479 154.015 140.544 151.938 138.872 149.655C138.779 149.506 138.633 149.397 138.464 149.351C138.295 149.305 138.114 149.324 137.959 149.405C137.81 149.516 137.706 149.676 137.665 149.857C137.624 150.039 137.65 150.229 137.737 150.393C139.502 152.644 141.509 154.692 143.722 156.501C143.883 156.508 144.04 156.451 144.16 156.344" fill="#A1511E"/>
<path d="M173.677 222.893C173.891 222.898 174.1 222.823 174.261 222.682C174.303 222.605 174.329 222.52 174.335 222.432C174.342 222.344 174.33 222.255 174.301 222.172C174.271 222.089 174.223 222.013 174.162 221.949C174.101 221.886 174.027 221.837 173.945 221.804C171.435 220.682 169.07 219.258 166.902 217.565C166.756 217.501 166.592 217.496 166.443 217.549C166.294 217.603 166.17 217.712 166.099 217.854C166.05 218.014 166.054 218.187 166.111 218.346C166.168 218.504 166.274 218.639 166.415 218.732C168.727 220.508 171.232 222.017 173.881 223.232" fill="#A1511E"/>
<path d="M191.888 205.014C192.074 205.011 192.253 204.946 192.399 204.831C192.463 204.671 192.466 204.493 192.408 204.331C192.35 204.169 192.234 204.034 192.083 203.952C189.545 202.851 187.154 201.436 184.966 199.739C184.897 199.695 184.818 199.668 184.736 199.66C184.655 199.651 184.572 199.66 184.495 199.688C184.417 199.716 184.348 199.761 184.29 199.82C184.233 199.879 184.19 199.95 184.164 200.028C184.12 200.098 184.093 200.177 184.084 200.258C184.076 200.34 184.086 200.424 184.114 200.501C184.142 200.579 184.186 200.648 184.245 200.706C184.304 200.763 184.375 200.807 184.453 200.833C186.728 202.633 189.211 204.153 191.847 205.359" fill="#A1511E"/>
<path d="M226.842 239.692C226.929 239.672 227.01 239.635 227.08 239.582C227.151 239.529 227.209 239.46 227.251 239.382C227.294 239.304 227.319 239.219 227.325 239.13C227.332 239.042 227.319 238.953 227.288 238.869C227.284 238.783 227.258 238.699 227.214 238.624C227.171 238.549 227.11 238.486 227.037 238.44C226.964 238.393 226.881 238.365 226.794 238.357C226.708 238.35 226.621 238.362 226.541 238.395C223.921 238.962 221.242 239.205 218.562 239.12C218.474 239.112 218.385 239.124 218.301 239.154C218.218 239.184 218.141 239.231 218.078 239.293C218.014 239.355 217.965 239.431 217.933 239.514C217.9 239.597 217.886 239.686 217.892 239.775C217.828 239.921 217.822 240.085 217.876 240.234C217.93 240.384 218.039 240.508 218.181 240.58C221.068 240.63 223.95 240.341 226.769 239.718" fill="#A1511E"/>
<path d="M229.135 227.958C230.55 227.545 231.939 227.045 233.293 226.461C233.467 226.398 233.609 226.269 233.688 226.101C233.767 225.933 233.776 225.741 233.713 225.566C233.637 225.411 233.506 225.29 233.346 225.225C233.186 225.161 233.008 225.158 232.846 225.218C230.359 226.034 227.789 226.571 225.183 226.82C225.002 226.834 224.834 226.917 224.713 227.053C224.593 227.189 224.53 227.366 224.538 227.548C224.568 227.722 224.656 227.882 224.788 227.999C224.92 228.117 225.089 228.186 225.265 228.195C226.659 228.102 228.042 227.882 229.395 227.535" fill="#A1511E"/>
<path d="M251.803 238.304C254.563 237.427 257.19 236.175 259.611 234.584C259.76 234.49 259.868 234.345 259.914 234.175C259.96 234.006 259.94 233.824 259.859 233.668C259.811 233.587 259.746 233.516 259.669 233.46C259.593 233.405 259.506 233.366 259.413 233.345C259.321 233.324 259.226 233.323 259.133 233.34C259.04 233.357 258.951 233.393 258.873 233.446C256.584 234.955 254.106 236.153 251.502 237.009C251.34 237.066 251.204 237.182 251.122 237.333C251.039 237.485 251.016 237.662 251.056 237.83C251.061 237.917 251.086 238.001 251.13 238.076C251.174 238.151 251.235 238.214 251.308 238.261C251.381 238.307 251.464 238.335 251.55 238.343C251.636 238.351 251.723 238.337 251.803 238.304Z" fill="#A1511E"/>
<path d="M268.927 225.198C271.455 223.813 273.811 222.133 275.944 220.192C276.016 220.14 276.075 220.072 276.118 219.994C276.162 219.917 276.188 219.83 276.195 219.741C276.202 219.652 276.19 219.563 276.16 219.479C276.129 219.396 276.082 219.319 276.019 219.255C275.872 219.22 275.718 219.228 275.575 219.279C275.432 219.331 275.308 219.423 275.217 219.544C273.248 221.397 271.053 222.993 268.684 224.293C268.602 224.319 268.527 224.365 268.465 224.426C268.404 224.487 268.358 224.561 268.331 224.644C268.304 224.726 268.297 224.813 268.311 224.899C268.325 224.985 268.359 225.066 268.41 225.136C268.461 225.279 268.562 225.4 268.695 225.474C268.828 225.548 268.983 225.571 269.131 225.538" fill="#A1511E"/>
<path d="M261.173 200.64C263.462 198.965 265.525 196.999 267.311 194.793C267.375 194.647 267.38 194.483 267.327 194.334C267.273 194.184 267.164 194.06 267.022 193.988C266.945 193.946 266.859 193.92 266.772 193.913C266.684 193.906 266.596 193.918 266.513 193.948C266.43 193.977 266.355 194.025 266.291 194.086C266.228 194.147 266.179 194.221 266.147 194.303C264.3 196.416 262.214 198.304 259.929 199.93C259.8 200.034 259.711 200.18 259.679 200.342C259.647 200.505 259.674 200.675 259.755 200.82C259.832 200.93 259.937 201.019 260.059 201.076C260.181 201.134 260.315 201.158 260.449 201.147" fill="#A1511E"/>
<path d="M280.502 169.137L280.94 168.979C282.513 166.56 283.762 163.945 284.653 161.198C284.695 161.121 284.72 161.035 284.727 160.947C284.734 160.859 284.722 160.77 284.692 160.687C284.662 160.604 284.615 160.528 284.554 160.465C284.493 160.401 284.419 160.353 284.337 160.32C284.26 160.277 284.175 160.252 284.087 160.245C283.999 160.238 283.911 160.25 283.828 160.279C283.745 160.309 283.67 160.356 283.607 160.418C283.543 160.479 283.494 160.553 283.462 160.635C282.59 163.271 281.39 165.786 279.889 168.119C279.851 168.28 279.861 168.448 279.917 168.604C279.973 168.76 280.073 168.897 280.205 168.997L280.642 168.839" fill="#A1511E"/>
<path d="M318.227 171.17L318.737 170.986C319.999 168.373 320.946 165.619 321.557 162.782C321.599 162.704 321.624 162.619 321.631 162.531C321.638 162.443 321.626 162.355 321.597 162.272C321.567 162.189 321.52 162.113 321.458 162.049C321.397 161.986 321.323 161.936 321.241 161.904C321.082 161.839 320.905 161.835 320.743 161.893C320.582 161.952 320.447 162.068 320.366 162.219C319.76 164.924 318.853 167.552 317.66 170.052C317.618 170.129 317.592 170.214 317.585 170.302C317.578 170.39 317.59 170.479 317.62 170.562C317.65 170.645 317.697 170.721 317.759 170.784C317.82 170.848 317.894 170.898 317.976 170.93L318.341 170.799" fill="#A1511E"/>
<path d="M292.968 214.144L293.406 213.986C295.017 211.569 296.291 208.943 297.191 206.178C297.234 206.101 297.259 206.016 297.266 205.928C297.273 205.84 297.261 205.751 297.231 205.668C297.201 205.585 297.154 205.51 297.093 205.446C297.032 205.383 296.958 205.333 296.876 205.301C296.799 205.258 296.713 205.232 296.626 205.225C296.538 205.218 296.45 205.23 296.367 205.26C296.284 205.29 296.209 205.337 296.145 205.398C296.082 205.46 296.033 205.534 296 205.616C295.052 208.204 293.811 210.674 292.302 212.979C292.26 213.057 292.235 213.142 292.228 213.23C292.221 213.318 292.232 213.406 292.262 213.489C292.292 213.572 292.339 213.648 292.401 213.712C292.462 213.775 292.536 213.825 292.618 213.857C292.779 213.864 292.936 213.807 293.056 213.7" fill="#A1511E"/>
<path d="M308.459 30.4968C319.454 33.809 333.641 44.3995 326.88 96.6606C320.119 148.922 336.397 144.466 332.024 149.263C318.333 164.357 310.73 149.163 310.73 149.163C310.73 149.163 296.581 162.522 291.476 145.107C291.476 145.107 277.983 158.229 273.336 138.418C273.336 138.418 256.156 150.223 258.025 129.058C258.025 129.058 242.204 138.225 242.373 118.746C242.373 118.746 228.177 125.098 228.786 106.617C228.908 103.516 239.294 111.097 252.274 82.79C265.254 54.4834 277.156 21.1116 308.459 30.4968Z" fill="#E3AC58"/>
<path d="M300.053 51.1242C299.898 50.4974 299.871 49.8455 299.973 49.2083C300.074 48.5711 300.303 47.961 300.644 47.4142C300.985 46.8674 301.433 46.3952 301.96 46.0253C302.487 45.6554 303.084 45.3955 303.713 45.261C304.975 44.9722 306.299 45.197 307.397 45.8863C308.494 46.5756 309.274 47.6736 309.566 48.9381C309.835 50.2014 309.603 51.5193 308.92 52.6134C308.237 53.7074 307.156 54.4915 305.905 54.8004C304.645 55.0684 303.331 54.835 302.238 54.149C301.146 53.4629 300.362 52.3781 300.053 51.1242Z" fill="#24201E"/>
<path d="M301.675 49.2178C301.63 49.0379 301.622 48.8515 301.651 48.6685C301.679 48.4855 301.743 48.3093 301.84 48.1516C301.936 47.9938 302.063 47.857 302.213 47.7488C302.363 47.6406 302.533 47.5634 302.713 47.5215C302.902 47.4741 303.098 47.4647 303.291 47.4939C303.484 47.5231 303.669 47.5908 303.836 47.6921C304.002 47.7935 304.147 47.9264 304.262 48.0843C304.377 48.2421 304.46 48.4219 304.505 48.612C304.56 48.9856 304.478 49.366 304.273 49.6829C304.069 49.9999 303.756 50.2311 303.394 50.3336C303.208 50.3809 303.014 50.3896 302.824 50.3582C302.634 50.3269 302.453 50.2563 302.292 50.1515C302.13 50.0468 301.992 49.9096 301.886 49.7489C301.78 49.5882 301.708 49.4076 301.675 49.2178Z" fill="#F1EBE7"/>
<path d="M344.821 50.2894C345.834 50.5857 339.024 57.0863 327.642 54.9879C333.39 56.7283 339.505 56.8431 345.31 55.319C343.031 57.8969 340.209 59.9355 337.048 61.2881C333.887 62.6407 330.465 63.274 327.029 63.1418C327.029 63.1418 321.057 59.5909 324.908 47.3795C331.583 47.362 338.233 48.2167 344.689 49.9232" fill="#DC422E"/>
<defs>
<filter id="filter0_d_229_2380" x="10.436" y="130.549" width="477.774" height="286.606" filterUnits="userSpaceOnUse" color-interpolation-filters="sRGB">
<feFlood flood-opacity="0" result="BackgroundImageFix"/>
<feColorMatrix in="SourceAlpha" type="matrix" values="0 0 0 0 0 0 0 0 0 0 0 0 0 0 0 0 0 0 127 0" result="hardAlpha"/>
<feOffset dy="4"/>
<feGaussianBlur stdDeviation="2"/>
<feComposite in2="hardAlpha" operator="out"/>
<feColorMatrix type="matrix" values="0 0 0 0 0.28 0 0 0 0 0.291429 0 0 0 0 0.108571 0 0 0 0.2 0"/>
<feBlend mode="normal" in2="BackgroundImageFix" result="effect1_dropShadow_229_2380"/>
<feBlend mode="normal" in="SourceGraphic" in2="effect1_dropShadow_229_2380" result="shape"/>
</filter>
</defs>
</svg>
