<svg width="328" height="46" viewBox="0 0 328 46" fill="none" xmlns="http://www.w3.org/2000/svg">
<path d="M149.975 45.5271H5.76828C2.59717 45.5271 0 42.9914 0 39.8953V6.10439C0 3.0083 2.59717 0.472573 5.76828 0.472573H149.975C153.146 0.472573 155.744 3.0083 155.744 6.10439V39.8953C155.744 42.9914 153.146 45.5271 149.975 45.5271Z" fill="black"/>
<path d="M149.975 1.37507C152.646 1.37507 154.819 3.49686 154.819 6.10439V39.8953C154.819 42.5028 152.646 44.6246 149.975 44.6246H5.76828C3.09757 44.6246 0.924367 42.5028 0.924367 39.8953V6.10439C0.924367 3.49686 3.09757 1.37507 5.76828 1.37507H149.975ZM149.975 0.472573H5.76828C2.59717 0.472573 0 3.0083 0 6.10439V39.8953C0 42.9914 2.59717 45.5271 5.76828 45.5271H149.975C153.146 45.5271 155.744 42.9914 155.744 39.8953V6.10439C155.744 3.0083 153.146 0.472573 149.975 0.472573Z" fill="#A6A6A6"/>
<path d="M54.704 12.0108C54.704 12.9513 54.4155 13.7045 53.8474 14.2663C53.1941 14.9323 52.3433 15.2674 51.3007 15.2674C50.3042 15.2674 49.4534 14.9266 48.7554 14.2551C48.056 13.5736 47.707 12.7373 47.707 11.7362C47.707 10.7352 48.056 9.89885 48.7554 9.22303C49.4534 8.5458 50.3042 8.20508 51.3007 8.20508C51.7967 8.20508 52.2697 8.30504 52.7211 8.49089C53.171 8.67815 53.5373 8.93158 53.8027 9.24415L53.1999 9.83831C52.737 9.30469 52.1068 9.0414 51.3007 9.0414C50.5739 9.0414 49.9437 9.2892 49.4087 9.78903C48.8794 10.2903 48.6141 10.9393 48.6141 11.7362C48.6141 12.5331 48.8794 13.1878 49.4087 13.6891C49.9437 14.1832 50.5739 14.4367 51.3007 14.4367C52.0722 14.4367 52.7211 14.1832 53.233 13.6834C53.5705 13.3526 53.7623 12.8964 53.8128 12.3135H51.3007V11.4997H54.652C54.6924 11.6757 54.704 11.846 54.704 12.0108Z" fill="white" stroke="white" stroke-width="0.16" stroke-miterlimit="10"/>
<path d="M60.0202 9.18915H56.8722V11.3292H59.7102V12.143H56.8722V14.2831H60.0202V15.1124H55.981V8.35986H60.0202V9.18915Z" fill="white" stroke="white" stroke-width="0.16" stroke-miterlimit="10"/>
<path d="M63.7723 15.1124H62.8811V9.18915H60.9502V8.35986H65.7047V9.18915H63.7723V15.1124Z" fill="white" stroke="white" stroke-width="0.16" stroke-miterlimit="10"/>
<path d="M69.146 15.1124V8.35986H70.0358V15.1124H69.146Z" fill="white" stroke="white" stroke-width="0.16" stroke-miterlimit="10"/>
<path d="M73.9798 15.1124H73.0959V9.18915H71.1577V8.35986H75.918V9.18915H73.9798V15.1124Z" fill="white" stroke="white" stroke-width="0.16" stroke-miterlimit="10"/>
<path d="M84.9189 14.2438C84.2368 14.9267 83.3917 15.2674 82.3837 15.2674C81.3699 15.2674 80.5249 14.9267 79.8428 14.2438C79.1621 13.5623 78.8232 12.726 78.8232 11.7362C78.8232 10.7464 79.1621 9.91011 79.8428 9.22866C80.5249 8.5458 81.3699 8.20508 82.3837 8.20508C83.386 8.20508 84.231 8.5458 84.9131 9.23429C85.5995 9.92137 85.9384 10.7521 85.9384 11.7362C85.9384 12.726 85.5995 13.5623 84.9189 14.2438ZM80.5018 13.6778C81.0152 14.1832 81.6396 14.4367 82.3837 14.4367C83.1221 14.4367 83.7522 14.1832 84.2599 13.6778C84.7718 13.1723 85.0314 12.5233 85.0314 11.7362C85.0314 10.9492 84.7718 10.3001 84.2599 9.79466C83.7522 9.2892 83.1221 9.03577 82.3837 9.03577C81.6396 9.03577 81.0152 9.2892 80.5018 9.79466C79.9899 10.3001 79.7303 10.9492 79.7303 11.7362C79.7303 12.5233 79.9899 13.1723 80.5018 13.6778Z" fill="white" stroke="white" stroke-width="0.16" stroke-miterlimit="10"/>
<path d="M87.1895 15.1124V8.35986H88.271L91.6339 13.6115H91.6729L91.6339 12.3134V8.35986H92.5237V15.1124H91.595L88.0734 9.60168H88.0345L88.0734 10.9054V15.1124H87.1895Z" fill="white" stroke="white" stroke-width="0.16" stroke-miterlimit="10"/>
<path d="M78.6045 24.9738C75.8949 24.9738 73.6813 26.9872 73.6813 29.765C73.6813 32.5204 75.8949 34.5549 78.6045 34.5549C81.3199 34.5549 83.5335 32.5204 83.5335 29.765C83.5335 26.9872 81.3199 24.9738 78.6045 24.9738ZM78.6045 32.6682C77.1177 32.6682 75.8386 31.4701 75.8386 29.765C75.8386 28.0375 77.1177 26.8604 78.6045 26.8604C80.0913 26.8604 81.3762 28.0375 81.3762 29.765C81.3762 31.4701 80.0913 32.6682 78.6045 32.6682ZM67.8625 24.9738C65.1471 24.9738 62.9393 26.9872 62.9393 29.765C62.9393 32.5204 65.1471 34.5549 67.8625 34.5549C70.5765 34.5549 72.7857 32.5204 72.7857 29.765C72.7857 26.9872 70.5765 24.9738 67.8625 24.9738ZM67.8625 32.6682C66.3743 32.6682 65.0909 31.4701 65.0909 29.765C65.0909 28.0375 66.3743 26.8604 67.8625 26.8604C69.3493 26.8604 70.6284 28.0375 70.6284 29.765C70.6284 31.4701 69.3493 32.6682 67.8625 32.6682ZM55.08 26.4423V28.4782H60.0595C59.9138 29.6158 59.5245 30.4521 58.9275 31.035C58.2007 31.739 57.0686 32.5204 55.08 32.5204C52.0156 32.5204 49.616 30.1058 49.616 27.1139C49.616 24.122 52.0156 21.7073 55.08 21.7073C56.737 21.7073 57.9425 22.3395 58.8323 23.1589L60.3018 21.7242C59.0572 20.5641 57.4017 19.6728 55.08 19.6728C50.8778 19.6728 47.3462 23.0111 47.3462 27.1139C47.3462 31.2166 50.8778 34.5549 55.08 34.5549C57.3513 34.5549 59.0572 33.8284 60.3984 32.4655C61.7727 31.1237 62.201 29.2371 62.201 27.7137C62.201 27.2406 62.1606 26.8055 62.0885 26.4423H55.08ZM107.349 28.0206C106.944 26.9491 105.694 24.9738 103.147 24.9738C100.623 24.9738 98.5224 26.9153 98.5224 29.765C98.5224 32.4486 100.602 34.5549 103.389 34.5549C105.643 34.5549 106.944 33.2131 107.479 32.4317L105.806 31.3434C105.248 32.1403 104.488 32.6682 103.389 32.6682C102.298 32.6682 101.515 32.1797 101.013 31.2166L107.576 28.5655L107.349 28.0206ZM100.658 29.6158C100.602 27.7686 102.128 26.8224 103.221 26.8224C104.077 26.8224 104.804 27.2406 105.046 27.839L100.658 29.6158ZM95.3239 34.2635H97.4812V20.1839H95.3239V34.2635ZM91.7908 26.041H91.7187C91.2342 25.4806 90.3098 24.9738 89.1388 24.9738C86.6815 24.9738 84.4348 27.0801 84.4348 29.7805C84.4348 32.4655 86.6815 34.5549 89.1388 34.5549C90.3098 34.5549 91.2342 34.0438 91.7187 33.4666H91.7908V34.1536C91.7908 35.9854 90.7886 36.9695 89.172 36.9695C87.8539 36.9695 87.0363 36.0403 86.6988 35.2589L84.8227 36.0234C85.3635 37.2934 86.7955 38.8562 89.172 38.8562C91.7014 38.8562 93.8356 37.4032 93.8356 33.8678V25.2652H91.7908V26.041ZM89.3234 32.6682C87.8366 32.6682 86.5921 31.4532 86.5921 29.7805C86.5921 28.0924 87.8366 26.8604 89.3234 26.8604C90.7886 26.8604 91.9437 28.0924 91.9437 29.7805C91.9437 31.4532 90.7886 32.6682 89.3234 32.6682ZM117.45 20.1839H112.29V34.2635H114.441V28.9287H117.45C119.839 28.9287 122.182 27.2406 122.182 24.5556C122.182 21.8721 119.833 20.1839 117.45 20.1839ZM117.506 26.9703H114.441V22.1424H117.506C119.112 22.1424 120.029 23.4447 120.029 24.5556C120.029 25.6454 119.112 26.9703 117.506 26.9703ZM130.806 24.947C129.251 24.947 127.635 25.6172 126.97 27.1026L128.879 27.884C129.29 27.1026 130.046 26.8492 130.845 26.8492C131.961 26.8492 133.093 27.5039 133.11 28.6598V28.8076C132.721 28.588 131.888 28.2628 130.862 28.2628C128.806 28.2628 126.711 29.368 126.711 31.4307C126.711 33.3173 128.395 34.5324 130.288 34.5324C131.736 34.5324 132.535 33.8946 133.037 33.1526H133.11V34.2409H135.188V28.84C135.188 26.3437 133.279 24.947 130.806 24.947ZM130.546 32.6626C129.843 32.6626 128.862 32.3219 128.862 31.4701C128.862 30.3803 130.085 29.9622 131.143 29.9622C132.091 29.9622 132.535 30.1663 133.11 30.4352C132.942 31.739 131.792 32.6626 130.546 32.6626ZM142.759 25.2554L140.286 31.3588H140.213L137.656 25.2554H135.336L139.177 33.7848L136.985 38.531H139.233L145.153 25.2554H142.759ZM123.365 34.2635H125.522V20.1839H123.365V34.2635Z" fill="white"/>
<path d="M12.0384 8.96398C11.6995 9.31033 11.5034 9.84958 11.5034 10.5479V35.4575C11.5034 36.1558 11.6995 36.695 12.0384 37.0414L12.1221 37.1174L26.4187 23.1646V22.8351L12.1221 8.88232L12.0384 8.96398Z" fill="url(#paint0_linear_229_2322)"/>
<path d="M31.1787 27.8179L26.4185 23.1646V22.8351L31.1845 18.1818L31.2912 18.2424L36.9355 21.3779C38.5463 22.2677 38.5463 23.732 36.9355 24.6274L31.2912 27.7573L31.1787 27.8179Z" fill="url(#paint1_linear_229_2322)"/>
<path d="M31.2917 27.7573L26.4189 22.9999L12.0386 37.0414C12.5736 37.5905 13.446 37.6567 14.4382 37.1076L31.2917 27.7573Z" fill="url(#paint2_linear_229_2322)"/>
<path d="M31.2917 18.2423L14.4382 8.89206C13.446 8.34859 12.5736 8.41476 12.0386 8.96386L26.4189 22.9998L31.2917 18.2423Z" fill="url(#paint3_linear_229_2322)"/>
<path d="M326.836 40.3312C326.836 42.7323 324.851 44.6771 322.395 44.6771H177.058C174.603 44.6771 172.611 42.7323 172.611 40.3312V5.6743C172.611 3.27443 174.603 1.32275 177.058 1.32275H322.394C324.851 1.32275 326.835 3.27443 326.835 5.6743L326.836 40.3312Z" fill="black"/>
<path d="M321.925 1.37531C324.6 1.37531 326.776 3.4971 326.776 6.10463V39.8955C326.776 42.5031 324.6 44.6248 321.925 44.6248H177.52C174.845 44.6248 172.669 42.5031 172.669 39.8955V6.10463C172.669 3.4971 174.845 1.37531 177.52 1.37531H321.925ZM321.925 0.472817H177.52C174.344 0.472817 171.744 3.00854 171.744 6.10463V39.8955C171.744 42.9916 174.344 45.5273 177.52 45.5273H321.925C325.101 45.5273 327.702 42.9916 327.702 39.8955V6.10463C327.702 3.00854 325.101 0.472817 321.925 0.472817Z" fill="#A6A6A6"/>
<path d="M206.549 22.7567C206.516 19.1264 209.598 17.3603 209.739 17.2781C207.993 14.7967 205.288 14.4577 204.337 14.4306C202.065 14.1975 199.861 15.7564 198.703 15.7564C197.522 15.7564 195.74 14.4532 193.819 14.4915C191.346 14.5286 189.034 15.9242 187.765 18.0913C185.147 22.51 187.1 29.0035 189.608 32.5752C190.862 34.3245 192.328 36.2776 194.247 36.2089C196.124 36.1334 196.826 35.042 199.091 35.042C201.336 35.042 201.994 36.2089 203.951 36.1649C205.966 36.1334 207.234 34.4078 208.445 32.6428C209.895 30.6379 210.477 28.6634 210.5 28.562C210.453 28.5462 206.588 27.1078 206.549 22.7567Z" fill="white"/>
<path d="M202.853 12.081C203.862 10.8499 204.553 9.17502 204.361 7.47534C202.9 7.53842 201.072 8.46091 200.02 9.66499C199.089 10.726 198.257 12.4651 198.472 14.1006C200.114 14.22 201.799 13.293 202.853 12.081Z" fill="white"/>
<path d="M233.717 35.9579H231.093L229.656 31.555H224.661L223.292 35.9579H220.738L225.687 20.9683H228.744L233.717 35.9579ZM229.223 29.7077L227.923 25.7936C227.786 25.3937 227.528 24.4521 227.148 22.9698H227.102C226.951 23.6073 226.707 24.549 226.372 25.7936L225.095 29.7077H229.223Z" fill="white"/>
<path d="M246.444 30.4205C246.444 32.2587 245.935 33.7118 244.916 34.7784C244.003 35.7279 242.87 36.2021 241.517 36.2021C240.057 36.2021 239.008 35.6908 238.369 34.668H238.323V40.3618H235.86V28.7073C235.86 27.5517 235.829 26.3656 235.769 25.1491H237.935L238.072 26.8623H238.118C238.94 25.5715 240.186 24.9272 241.859 24.9272C243.167 24.9272 244.258 25.4307 245.132 26.4388C246.007 27.448 246.444 28.7749 246.444 30.4205ZM243.935 30.5084C243.935 29.4564 243.692 28.5891 243.205 27.9065C242.672 27.1946 241.957 26.8387 241.061 26.8387C240.453 26.8387 239.901 27.0369 239.408 27.4278C238.913 27.822 238.59 28.3367 238.438 28.9743C238.362 29.2716 238.324 29.5149 238.324 29.7064V31.5086C238.324 32.2948 238.571 32.9582 239.066 33.5C239.56 34.0418 240.202 34.3121 240.993 34.3121C241.92 34.3121 242.642 33.9629 243.159 33.2668C243.676 32.5696 243.935 31.6505 243.935 30.5084Z" fill="white"/>
<path d="M259.195 30.4205C259.195 32.2587 258.686 33.7118 257.665 34.7784C256.754 35.7279 255.621 36.2021 254.268 36.2021C252.808 36.2021 251.759 35.6908 251.121 34.668H251.075V40.3618H248.612V28.7073C248.612 27.5517 248.581 26.3656 248.521 25.1491H250.687L250.824 26.8623H250.87C251.69 25.5715 252.937 24.9272 254.611 24.9272C255.918 24.9272 257.009 25.4307 257.885 26.4388C258.757 27.448 259.195 28.7749 259.195 30.4205ZM256.686 30.5084C256.686 29.4564 256.442 28.5891 255.955 27.9065C255.422 27.1946 254.709 26.8387 253.812 26.8387C253.203 26.8387 252.652 27.0369 252.157 27.4278C251.663 27.822 251.34 28.3367 251.189 28.9743C251.114 29.2716 251.075 29.5149 251.075 29.7064V31.5086C251.075 32.2948 251.322 32.9582 251.814 33.5C252.309 34.0407 252.951 34.3121 253.743 34.3121C254.671 34.3121 255.393 33.9629 255.909 33.2668C256.427 32.5696 256.686 31.6505 256.686 30.5084Z" fill="white"/>
<path d="M273.45 31.7542C273.45 33.0293 272.996 34.0667 272.085 34.8675C271.083 35.7427 269.689 36.1797 267.897 36.1797C266.243 36.1797 264.917 35.8688 263.913 35.246L264.483 33.2444C265.565 33.8819 266.751 34.2018 268.044 34.2018C268.971 34.2018 269.693 33.9968 270.212 33.5891C270.729 33.1813 270.986 32.6339 270.986 31.9513C270.986 31.3431 270.774 30.8306 270.347 30.415C269.923 29.9994 269.215 29.613 268.226 29.256C265.535 28.2771 264.19 26.8433 264.19 24.9578C264.19 23.7255 264.661 22.7152 265.605 21.929C266.545 21.1416 267.8 20.7485 269.369 20.7485C270.768 20.7485 271.93 20.9862 272.858 21.4604L272.242 23.418C271.375 22.9585 270.396 22.7287 269.3 22.7287C268.433 22.7287 267.756 22.9371 267.271 23.3516C266.861 23.7221 266.655 24.1738 266.655 24.7088C266.655 25.3013 266.89 25.7913 267.361 26.1765C267.771 26.5324 268.516 26.9176 269.598 27.3333C270.92 27.8525 271.892 28.4596 272.517 29.1557C273.14 29.8496 273.45 30.718 273.45 31.7542Z" fill="white"/>
<path d="M281.594 26.9514H278.879V32.1991C278.879 33.5338 279.357 34.2006 280.316 34.2006C280.756 34.2006 281.121 34.1635 281.41 34.0891L281.478 35.9127C280.993 36.0896 280.354 36.1785 279.563 36.1785C278.59 36.1785 277.83 35.8891 277.281 35.3112C276.735 34.7323 276.46 33.7614 276.46 32.3973V26.9491H274.842V25.1469H276.46V23.1679L278.879 22.4561V25.1469H281.594V26.9514Z" fill="white"/>
<path d="M293.843 30.4643C293.843 32.1257 293.355 33.4897 292.382 34.5564C291.362 35.6546 290.008 36.202 288.32 36.202C286.694 36.202 285.399 35.676 284.433 34.624C283.467 33.5719 282.984 32.244 282.984 30.6434C282.984 28.9685 283.481 27.5966 284.478 26.5299C285.473 25.4621 286.815 24.9282 288.503 24.9282C290.13 24.9282 291.438 25.4542 292.426 26.5074C293.371 27.529 293.843 28.848 293.843 30.4643ZM291.287 30.542C291.287 29.5452 291.069 28.6903 290.626 27.9773C290.11 27.1145 289.372 26.6842 288.415 26.6842C287.425 26.6842 286.673 27.1156 286.157 27.9773C285.714 28.6914 285.496 29.5598 285.496 30.5871C285.496 31.5839 285.714 32.4388 286.157 33.1507C286.689 34.0135 287.433 34.4437 288.393 34.4437C289.334 34.4437 290.072 34.0045 290.604 33.1281C291.058 32.4016 291.287 31.5377 291.287 30.542Z" fill="white"/>
<path d="M301.849 27.2611C301.605 27.2171 301.345 27.1946 301.073 27.1946C300.206 27.1946 299.536 27.5134 299.065 28.152C298.655 28.7152 298.449 29.4271 298.449 30.2865V35.9577H295.987L296.01 28.553C296.01 27.3073 295.979 26.173 295.918 25.1503H298.063L298.153 27.2183H298.222C298.481 26.5075 298.892 25.9353 299.453 25.5062C300.002 25.1199 300.594 24.9272 301.233 24.9272C301.461 24.9272 301.666 24.943 301.849 24.9712V27.2611Z" fill="white"/>
<path d="M312.864 30.0423C312.864 30.4726 312.835 30.8353 312.774 31.1315H305.385C305.414 32.1993 305.771 33.0159 306.457 33.5791C307.08 34.0826 307.885 34.3349 308.874 34.3349C309.968 34.3349 310.966 34.1648 311.864 33.8235L312.25 35.4905C311.201 35.9366 309.962 36.1585 308.533 36.1585C306.814 36.1585 305.465 35.6651 304.483 34.6796C303.503 33.694 303.012 32.3705 303.012 30.7102C303.012 29.0804 303.469 27.7231 304.382 26.6407C305.339 25.4851 306.632 24.9072 308.258 24.9072C309.856 24.9072 311.065 25.4851 311.887 26.6407C312.537 27.5587 312.864 28.6941 312.864 30.0423ZM310.516 29.4194C310.532 28.7076 310.371 28.0926 310.037 27.5733C309.611 26.9054 308.956 26.572 308.074 26.572C307.269 26.572 306.614 26.8975 306.114 27.5508C305.704 28.0701 305.46 28.6929 305.385 29.4183H310.516V29.4194Z" fill="white"/>
<path d="M228.408 11.7465C228.408 13.0723 228.001 14.0702 227.186 14.7404C226.432 15.3588 225.36 15.6685 223.971 15.6685C223.283 15.6685 222.693 15.6392 222.2 15.5807V8.33702C222.844 8.23565 223.537 8.18384 224.285 8.18384C225.608 8.18384 226.605 8.4643 227.277 9.02523C228.031 9.65937 228.408 10.5661 228.408 11.7465ZM227.132 11.7792C227.132 10.9198 226.899 10.2609 226.432 9.8013C225.965 9.34287 225.284 9.11309 224.386 9.11309C224.005 9.11309 223.68 9.13787 223.411 9.18968V14.6965C223.56 14.719 223.833 14.7291 224.229 14.7291C225.155 14.7291 225.87 14.478 226.374 13.9756C226.878 13.4732 227.132 12.7411 227.132 11.7792Z" fill="white"/>
<path d="M235.178 12.9043C235.178 13.721 234.938 14.39 234.46 14.9149C233.959 15.4544 233.294 15.7236 232.465 15.7236C231.666 15.7236 231.029 15.4657 230.554 14.9476C230.081 14.4306 229.844 13.7784 229.844 12.9922C229.844 12.17 230.088 11.4953 230.577 10.9715C231.067 10.4477 231.726 10.1853 232.555 10.1853C233.355 10.1853 233.997 10.4432 234.483 10.9602C234.945 11.4626 235.178 12.1114 235.178 12.9043ZM233.922 12.9426C233.922 12.4527 233.813 12.0325 233.597 11.6822C233.343 11.2587 232.981 11.047 232.511 11.047C232.025 11.047 231.655 11.2587 231.401 11.6822C231.184 12.0325 231.076 12.4594 231.076 12.964C231.076 13.454 231.185 13.8741 231.401 14.2244C231.663 14.648 232.028 14.8597 232.5 14.8597C232.962 14.8597 233.325 14.6446 233.586 14.2132C233.81 13.8561 233.922 13.4326 233.922 12.9426Z" fill="white"/>
<path d="M244.253 10.2935L242.549 15.6031H241.44L240.734 13.2975C240.555 12.7219 240.41 12.1497 240.296 11.582H240.274C240.169 12.1655 240.024 12.7365 239.837 13.2975L239.087 15.6031H237.965L236.363 10.2935H237.607L238.223 12.8176C238.372 13.4146 238.494 13.9834 238.592 14.5218H238.614C238.704 14.078 238.853 13.5126 239.064 12.8289L239.837 10.2946H240.823L241.564 12.7748C241.743 13.3797 241.888 13.962 242 14.523H242.034C242.116 13.9767 242.24 13.3943 242.404 12.7748L243.064 10.2946H244.253V10.2935Z" fill="white"/>
<path d="M250.529 15.6033H249.319V12.5621C249.319 11.625 248.954 11.1564 248.221 11.1564C247.862 11.1564 247.572 11.2848 247.347 11.5428C247.124 11.8007 247.01 12.1048 247.01 12.4529V15.6022H245.8V11.8109C245.8 11.3445 245.785 10.8388 245.756 10.2914H246.82L246.876 11.1215H246.91C247.051 10.8636 247.261 10.6507 247.537 10.4806C247.865 10.2824 248.233 10.1821 248.635 10.1821C249.143 10.1821 249.566 10.3421 249.902 10.6631C250.32 11.0562 250.529 11.643 250.529 12.4225V15.6033Z" fill="white"/>
<path d="M253.868 15.6032H252.659V7.85718H253.868V15.6032Z" fill="white"/>
<path d="M260.996 12.9043C260.996 13.721 260.757 14.39 260.279 14.9149C259.778 15.4544 259.112 15.7236 258.284 15.7236C257.483 15.7236 256.847 15.4657 256.373 14.9476C255.899 14.4306 255.663 13.7784 255.663 12.9922C255.663 12.17 255.906 11.4953 256.396 10.9715C256.886 10.4477 257.544 10.1853 258.373 10.1853C259.173 10.1853 259.815 10.4432 260.302 10.9602C260.764 11.4626 260.996 12.1114 260.996 12.9043ZM259.739 12.9426C259.739 12.4527 259.631 12.0325 259.415 11.6822C259.162 11.2587 258.799 11.047 258.33 11.047C257.843 11.047 257.473 11.2587 257.22 11.6822C257.003 12.0325 256.895 12.4594 256.895 12.964C256.895 13.454 257.004 13.8741 257.22 14.2244C257.482 14.648 257.847 14.8597 258.319 14.8597C258.781 14.8597 259.142 14.6446 259.403 14.2132C259.629 13.8561 259.739 13.4326 259.739 12.9426Z" fill="white"/>
<path d="M266.856 15.6031H265.768L265.678 14.9915H265.645C265.273 15.4792 264.743 15.7236 264.054 15.7236C263.54 15.7236 263.124 15.5626 262.811 15.2427C262.527 14.9521 262.385 14.5905 262.385 14.1614C262.385 13.5126 262.662 13.0181 263.22 12.6757C263.777 12.3333 264.56 12.1654 265.569 12.1733V12.0742C265.569 11.3747 265.192 11.0256 264.438 11.0256C263.9 11.0256 263.427 11.1574 263.018 11.4187L262.772 10.6437C263.278 10.3385 263.903 10.1853 264.64 10.1853C266.063 10.1853 266.777 10.9174 266.777 12.3817V14.3371C266.777 14.8676 266.804 15.29 266.856 15.6031ZM265.599 13.7784V12.9595C264.263 12.937 263.595 13.2941 263.595 14.0296C263.595 14.3067 263.672 14.5139 263.828 14.6525C263.984 14.791 264.182 14.8597 264.419 14.8597C264.685 14.8597 264.933 14.7775 265.16 14.6142C265.387 14.4497 265.527 14.2413 265.579 13.9857C265.592 13.9282 265.599 13.8584 265.599 13.7784Z" fill="white"/>
<path d="M273.735 15.6032H272.661L272.604 14.7505H272.571C272.228 15.3993 271.643 15.7237 270.822 15.7237C270.166 15.7237 269.619 15.4725 269.186 14.9702C268.753 14.4678 268.537 13.8156 268.537 13.0148C268.537 12.1554 268.771 11.4593 269.242 10.9276C269.699 10.432 270.258 10.1842 270.923 10.1842C271.655 10.1842 272.166 10.4242 272.458 10.9051H272.481V7.85718H273.692V14.1727C273.692 14.6897 273.706 15.1661 273.735 15.6032ZM272.481 13.364V12.4786C272.481 12.3255 272.469 12.2016 272.447 12.1069C272.379 11.8231 272.232 11.5843 272.009 11.3917C271.784 11.1991 271.513 11.1022 271.199 11.1022C270.748 11.1022 270.394 11.2768 270.134 11.6271C269.877 11.9774 269.746 12.4246 269.746 12.9709C269.746 13.4958 269.87 13.9215 270.118 14.2493C270.38 14.5985 270.734 14.773 271.176 14.773C271.574 14.773 271.891 14.6277 272.133 14.336C272.366 14.0668 272.481 13.7424 272.481 13.364Z" fill="white"/>
<path d="M284.089 12.9043C284.089 13.721 283.85 14.39 283.372 14.9149C282.87 15.4544 282.207 15.7236 281.377 15.7236C280.578 15.7236 279.942 15.4657 279.466 14.9476C278.992 14.4306 278.755 13.7784 278.755 12.9922C278.755 12.17 278.999 11.4953 279.489 10.9715C279.979 10.4477 280.637 10.1853 281.468 10.1853C282.266 10.1853 282.91 10.4432 283.395 10.9602C283.857 11.4626 284.089 12.1114 284.089 12.9043ZM282.835 12.9426C282.835 12.4527 282.726 12.0325 282.51 11.6822C282.255 11.2587 281.894 11.047 281.423 11.047C280.938 11.047 280.568 11.2587 280.313 11.6822C280.095 12.0325 279.988 12.4594 279.988 12.964C279.988 13.454 280.097 13.8741 280.313 14.2244C280.575 14.648 280.94 14.8597 281.411 14.8597C281.873 14.8597 282.237 14.6446 282.498 14.2132C282.721 13.8561 282.835 13.4326 282.835 12.9426Z" fill="white"/>
<path d="M290.599 15.6033H289.389V12.5621C289.389 11.625 289.024 11.1564 288.291 11.1564C287.932 11.1564 287.642 11.2848 287.417 11.5428C287.193 11.8007 287.081 12.1048 287.081 12.4529V15.6022H285.869V11.8109C285.869 11.3445 285.856 10.8388 285.827 10.2914H286.889L286.946 11.1215H286.98C287.122 10.8636 287.332 10.6507 287.607 10.4806C287.936 10.2824 288.302 10.1821 288.706 10.1821C289.213 10.1821 289.635 10.3421 289.972 10.6631C290.391 11.0562 290.599 11.643 290.599 12.4225V15.6033Z" fill="white"/>
<path d="M298.747 11.1777H297.414V13.7571C297.414 14.4127 297.651 14.7404 298.12 14.7404C298.337 14.7404 298.517 14.7224 298.659 14.6852L298.69 15.5807C298.451 15.6685 298.137 15.7125 297.75 15.7125C297.272 15.7125 296.9 15.5706 296.63 15.2867C296.36 15.0029 296.226 14.5253 296.226 13.8551V11.1777H295.43V10.2935H296.226V9.32036L297.413 8.97119V10.2924H298.746V11.1777H298.747Z" fill="white"/>
<path d="M305.156 15.6032H303.944V12.5845C303.944 11.6327 303.579 11.1563 302.848 11.1563C302.286 11.1563 301.903 11.4323 301.692 11.9842C301.657 12.1002 301.636 12.2421 301.636 12.4088V15.6021H300.426V7.85718H301.636V11.0572H301.659C302.04 10.4748 302.587 10.1842 303.295 10.1842C303.796 10.1842 304.211 10.3442 304.54 10.6652C304.95 11.0651 305.156 11.6598 305.156 12.446V15.6032Z" fill="white"/>
<path d="M311.768 12.6972C311.768 12.909 311.752 13.0869 311.723 13.2322H308.092C308.108 13.7571 308.281 14.157 308.618 14.4341C308.925 14.6819 309.321 14.8058 309.806 14.8058C310.343 14.8058 310.833 14.7224 311.275 14.5546L311.464 15.3746C310.948 15.5931 310.34 15.7024 309.636 15.7024C308.793 15.7024 308.129 15.4602 307.648 14.9759C307.165 14.4915 306.926 13.8416 306.926 13.0261C306.926 12.2253 307.149 11.5585 307.599 11.0268C308.068 10.4591 308.702 10.1753 309.502 10.1753C310.286 10.1753 310.881 10.4591 311.283 11.0268C311.607 11.4774 311.768 12.0349 311.768 12.6972ZM310.613 12.392C310.622 12.0417 310.542 11.7398 310.378 11.4853C310.168 11.1575 309.848 10.993 309.415 10.993C309.02 10.993 308.697 11.153 308.451 11.474C308.25 11.7297 308.131 12.0349 308.092 12.392H310.613Z" fill="white"/>
<defs>
<linearGradient id="paint0_linear_229_2322" x1="25.1494" y1="35.7169" x2="6.25171" y2="16.3613" gradientUnits="userSpaceOnUse">
<stop stop-color="#00A0FF"/>
<stop offset="0.0066" stop-color="#00A1FF"/>
<stop offset="0.2601" stop-color="#00BEFF"/>
<stop offset="0.5122" stop-color="#00D2FF"/>
<stop offset="0.7604" stop-color="#00DFFF"/>
<stop offset="1" stop-color="#00E3FF"/>
</linearGradient>
<linearGradient id="paint1_linear_229_2322" x1="39.033" y1="22.9983" x2="11.1181" y2="22.9983" gradientUnits="userSpaceOnUse">
<stop stop-color="#FFE000"/>
<stop offset="0.4087" stop-color="#FFBD00"/>
<stop offset="0.7754" stop-color="#FFA500"/>
<stop offset="1" stop-color="#FF9C00"/>
</linearGradient>
<linearGradient id="paint2_linear_229_2322" x1="28.642" y1="20.4136" x2="3.01523" y2="-5.83411" gradientUnits="userSpaceOnUse">
<stop stop-color="#FF3A44"/>
<stop offset="1" stop-color="#C31162"/>
</linearGradient>
<linearGradient id="paint3_linear_229_2322" x1="8.41875" y1="45.3286" x2="19.8622" y2="33.6079" gradientUnits="userSpaceOnUse">
<stop stop-color="#32A071"/>
<stop offset="0.0685" stop-color="#2DA771"/>
<stop offset="0.4762" stop-color="#15CF74"/>
<stop offset="0.8009" stop-color="#06E775"/>
<stop offset="1" stop-color="#00F076"/>
</linearGradient>
</defs>
</svg>
