<?xml version="1.0" encoding="UTF-8"?>
<svg id="graphics" xmlns="http://www.w3.org/2000/svg" viewBox="0 0 1080 311.17">
  <defs>
    <style>
      .cls-1 {
        fill: #7b8030;
      }

      .cls-2 {
        fill: #ef8450;
      }
    </style>
  </defs>
  <g>
    <path class="cls-1" d="m318.24,148.79c-1.12-25.88-8.74-50.13-21.28-71.22v70.58c0,2.82-2.29,5.11-5.11,5.11s-5.11-2.29-5.11-5.11V62.46c-5.33-6.96-11.24-13.46-17.65-19.44v93.67c0,2.82-2.29,5.11-5.11,5.11s-5.11-2.29-5.11-5.11V34.28c-5.58-4.41-11.47-8.42-17.65-12.06v102.85c0,2.82-2.29,5.11-5.11,5.11s-5.11-2.29-5.11-5.11V16.71c-6.07-3.01-12.36-5.63-18.85-7.87v143.27c0,13.71-11.11,24.82-24.82,24.82-3.05,0-6-.55-8.7-1.58-3.36-1.26-6.36-3.21-8.85-5.69-1.72-1.71-3.18-3.68-4.34-5.84,0-.01-.01-.03-.01-.04-.35-.66-.69-1.33-.96-2.03,0,.03.01.04.01.07-3.44-7.4-9.34-16.45-15.63-21.74-20.92-17.55-52.17-17.22-72.71.76-21.18,18.54-25.01,51.3-8.7,74.58l-.1.07c19.85,28.98,52.61,46.27,87.67,46.27,42.4,0,80.69-25.18,97.52-64.13,1.11-2.58,4.12-3.78,6.71-2.67,2.58,1.12,3.78,4.13,2.66,6.71-18.44,42.71-60.4,70.3-106.9,70.3-38.45,0-74.39-18.98-96.12-50.75l-.07-.09c-.13-.19-.25-.36-.36-.55-1.05-1.56-1.9-2.86-2.64-4.09l-.74-1.23v-.28c-.06-.16-.07-.34-.12-.5-14.25-26.79-8.58-61.16,14.47-81.35,7.87-6.89,17.06-11.59,26.74-14.09-2.98-3.68-4.76-8.35-4.76-13.43v-63.69h-40.95C19.41,70.34,0,110.75,0,155.59c0,85.92,71.28,155.58,159.2,155.58,18.57,0,36.39-3.11,52.96-8.83,59.81-20.6,103.23-75.13,106.08-139.94.12-2.26.16-4.53.16-6.8s-.04-4.54-.16-6.8Zm-159.58,67.4c22.71-1.33,42.57-15.09,51.85-35.94,1.15-2.57,4.17-3.74,6.74-2.58,2.58,1.15,3.74,4.17,2.6,6.74-10.86,24.38-34.11,40.46-60.68,41.98h-.15s-.15.01-.15.01c-2.82,0-5.11-2.29-5.11-5.11s2.16-5.01,4.89-5.11Zm82.14-23.18c-14.9,34.1-48.57,56.14-85.77,56.14-8.66,0-17.24-1.2-25.56-3.53-2.2-.57-3.82-2.57-3.82-4.95,0-2.83,2.28-5.11,5.09-5.11h.71l.69.19c7.44,2.1,15.14,3.18,22.89,3.18,33.14,0,63.13-19.63,76.4-50.01,1.14-2.58,4.15-3.77,6.73-2.64,2.58,1.12,3.77,4.15,2.64,6.73Z"/>
    <path class="cls-2" d="m162.53,31.73c0-17.52-14.2-31.73-31.73-31.73h-6.72v31.73h38.45Z"/>
    <path class="cls-2" d="m62.84,31.73h61.24C124.08,14.21,109.88,0,92.36,0h-45.17s-8.73,31.73,15.65,31.73Z"/>
    <path class="cls-1" d="m115.52,55.32c0,4.73,3.84,8.57,8.57,8.57s8.58-3.84,8.58-8.57-3.84-8.58-8.58-8.58-8.57,3.84-8.57,8.58Z"/>
    <polygon class="cls-2" points="162.53 41.95 162.53 63.92 189.17 41.95 162.53 41.95"/>
    <path class="cls-2" d="m162.53,102.02c0,5.79,4.7,10.49,10.49,10.49s10.49-4.7,10.49-10.49c0-2.03-.59-3.92-1.59-5.53h0s.01,0,.01,0l-19.41-32.57v38.1h0Z"/>
  </g>
  <g>
    <g>
      <path class="cls-2" d="m477.35,10.12h4.14l23.56,129.37h-29.96l-11.16-66.75-30.58,44.84-30.79-44.84-11.16,66.75h-29.96l23.35-129.37h4.34l44.22,66.34,44.02-66.34Z"/>
      <path class="cls-2" d="m582.76,140.94c-37.61,0-67.58-23.97-67.58-65.72s29.96-65.51,67.58-65.51,67.78,23.97,67.78,65.72-30.17,65.51-67.78,65.51Zm0-107.46c-20.05,0-36.58,15.5-36.58,41.75s16.53,41.74,36.58,41.74,36.58-14.88,36.58-41.54-16.32-41.95-36.58-41.95Z"/>
      <path class="cls-2" d="m702.63,68.19v71.3h-30.58V9.5h4.96l79.15,72.95V11.36h30.59v129.78h-4.96l-79.15-72.95Z"/>
      <path class="cls-2" d="m850.81,139.49h-36.37V11.36h36.37c55.8,0,78.53,28.73,78.53,64.07s-22.73,64.06-78.53,64.06Zm2.07-104.78h-7.85v81.01h7.85c31.2,0,46.08-17.98,46.08-40.51s-14.88-40.51-46.08-40.51Z"/>
      <path class="cls-2" d="m1012.22,140.94c-37.61,0-67.58-23.97-67.58-65.72s29.96-65.51,67.58-65.51,67.78,23.97,67.78,65.72-30.17,65.51-67.78,65.51Zm0-107.46c-20.05,0-36.58,15.5-36.58,41.75s16.53,41.74,36.58,41.74,36.58-14.88,36.58-41.54-16.32-41.95-36.58-41.95Z"/>
    </g>
    <path class="cls-2" d="m430.03,311.17c-39.68,0-68.61-22.73-68.61-65.72s30.17-65.3,69.02-65.3c26.04,0,43.61,11.78,43.61,11.78l-2.07,24.59s-16.94-13.02-39.26-13.02-40.71,14.26-40.71,41.75,17.98,42.36,39.26,42.36c9.71,0,17.57-3.51,19.84-4.13v-44.43h30.59v56.42c-8.89,5.58-29.14,15.71-51.67,15.71Z"/>
    <path class="cls-2" d="m627.09,309.72l-9.71-20.67h-50.84l-9.3,20.67h-33.27l65.51-131.43h4.96l65.51,131.43h-32.86Zm-51.87-42.37h33.48l-16.74-37.2-16.74,37.2Z"/>
    <path class="cls-2" d="m702.21,181.59h30.58v104.37h48.36l-5.58,23.76h-73.36v-128.13Z"/>
    <path class="cls-2" d="m823.43,181.59h30.58v104.37h48.36l-5.58,23.76h-73.36v-128.13Z"/>
    <path class="cls-2" d="m1012.22,311.17c-37.61,0-67.58-23.97-67.58-65.72s29.96-65.51,67.58-65.51,67.78,23.97,67.78,65.72-30.17,65.51-67.78,65.51Zm0-107.46c-20.05,0-36.58,15.5-36.58,41.75s16.53,41.74,36.58,41.74,36.58-14.88,36.58-41.54-16.32-41.95-36.58-41.95Z"/>
  </g>
</svg>